<?xml version="1.0" encoding="UTF-8" standalone="no"?>
<!-- Created with Inkscape (http://www.inkscape.org/) -->

<svg
   xmlns:dc="http://purl.org/dc/elements/1.1/"
   xmlns:cc="http://creativecommons.org/ns#"
   xmlns:rdf="http://www.w3.org/1999/02/22-rdf-syntax-ns#"
   xmlns:svg="http://www.w3.org/2000/svg"
   xmlns="http://www.w3.org/2000/svg"
   xmlns:sodipodi="http://sodipodi.sourceforge.net/DTD/sodipodi-0.dtd"
   xmlns:inkscape="http://www.inkscape.org/namespaces/inkscape"
   version="1.1"
   width="595"
   height="700"
   id="svg2"
   inkscape:version="0.47 r22583"
   sodipodi:docname="autotracedplain.svg">
  <metadata
     id="metadata54">
    <rdf:RDF>
      <cc:Work
         rdf:about="">
        <dc:format>image/svg+xml</dc:format>
        <dc:type
           rdf:resource="http://purl.org/dc/dcmitype/StillImage" />
      </cc:Work>
    </rdf:RDF>
  </metadata>
  <sodipodi:namedview
     pagecolor="#ffffff"
     bordercolor="#666666"
     borderopacity="1"
     objecttolerance="10"
     gridtolerance="10"
     guidetolerance="10"
     inkscape:pageopacity="0"
     inkscape:pageshadow="2"
     inkscape:window-width="1024"
     inkscape:window-height="721"
     id="namedview52"
     showgrid="false"
     inkscape:zoom="0.71428571"
     inkscape:cx="138.90034"
     inkscape:cy="309.62857"
     inkscape:window-x="-4"
     inkscape:window-y="-4"
     inkscape:window-maximized="1"
     inkscape:current-layer="svg2" />
  <desc
     id="desc6">Converted from Raster to SVG by RO IT Systems - info@roitsystems.com</desc>
  <defs
     id="defs10">
    <inkscape:perspective
       sodipodi:type="inkscape:persp3d"
       inkscape:vp_x="0 : 350 : 1"
       inkscape:vp_y="0 : 1000 : 0"
       inkscape:vp_z="595 : 350 : 1"
       inkscape:persp3d-origin="297.5 : 233.33333 : 1"
       id="perspective56" />
  </defs>
  <path
     d="m 55.352087,689.118 c -0.613306,-1.346 0.289403,-2.854 4.008538,-6.6991 l 3.23284,-3.341 -0.795607,-0.65 c -0.857308,-0.69 -2.921328,-1.168 -7.078367,-1.626 -1.872778,-0.21 -2.626945,-0.43 -2.626945,-0.78 0,-0.27 1.427684,-1.292 3.17262,-2.2761 1.744937,-0.98 4.775535,-2.71 6.734664,-3.836 8.056236,-4.628 28.892489,-12.1261 39.01729,-14.0391 5.57154,-1.053 6.72603,-2.799 4.28683,-6.4851 -1.71073,-2.585 -4.85988,-4.421 -8.706501,-5.077 -5.64583,-0.96 -12.806713,0.4 -26.716525,5.075 -13.79383,4.6371 -21.706965,6.6241 -26.572051,6.6741 -3.964247,0 -5.705304,-1.265 -4.578373,-3.4351 0.280103,-0.54 0.958109,-1.311 1.506654,-1.715 1.525055,-1.122 16.171193,-8.409 18.193212,-9.0521 2.707706,-0.86 7.651692,-0.65 9.196397,0.39 3.427652,2.3141 7.023016,1.2111 19.316606,-5.921 6.23531,-3.618 10.27471,-5.4811 15.022811,-6.9291 4.03046,-1.23 8.05084,-3.209 11.77203,-5.797 3.70433,-2.5751 10.12803,-9.1891 14.26984,-14.6922 2.02983,-2.697 4.97023,-6.314 6.53424,-8.039 3.38874,-3.7351 4.05992,-5.0311 4.61494,-8.9121 0.498,-3.4821 0.3087,-6.5391 -0.95641,-15.4482 -0.78581,-5.534 -0.92561,-7.784 -0.95771,-15.4111 -0.021,-4.9131 0.097,-11.0951 0.2605,-13.7391 l 0.29811,-4.8061 1.27808,-0.19 c 0.70291,-0.11 2.70464,-0.58 4.44822,-1.06 4.19748,-1.147 6.62836,-1.102 13.34912,0.25 4.42599,0.89 6.43197,1.117 9.92533,1.126 4.18778,0 4.68301,-0.1 11.38344,-1.844 6.73546,-1.783 7.14005,-1.848 10.50778,-1.689 4.12126,0.2 5.4012,0.61 12.85456,4.119 10.09842,4.7601 13.41888,5.5661 38.10819,9.2501 3.37125,0.5 7.13196,1.085 8.35714,1.292 l 2.22758,0.38 2.35473,4.9511 c 1.39011,2.923 2.7989,5.37 3.43897,5.974 l 1.08423,1.024 -1.0484,2.014 c -0.6016,1.1561 -1.13104,2.8151 -1.24225,3.8931 -0.1908,1.848 -0.1564,1.936 2.17614,5.541 1.30351,2.0141 4.19393,6.5761 6.42318,10.1371 3.61419,5.7731 8.10066,12.0851 11.26932,15.8542 0.60721,0.72 0.92391,1.314 0.70381,1.314 -0.28901,0 -0.33461,0.95 -0.1639,3.432 0.1879,2.7291 0.1139,3.8541 -0.36111,5.4881 -1.11108,3.822 -3.58288,6.805 -8.30945,10.0291 -2.20305,1.502 -40.94494,22.2432 -51.95351,27.8142 -10.06012,5.0911 -23.29532,10.2411 -40.98035,15.9462 -15.81445,5.102 -17.70884,5.732 -26.26946,8.7371 -13.615,4.781 -17.93191,5.784 -24.6933,5.743 -4.04144,0 -4.87669,-0.16 -10.85803,-1.7 -5.83034,-1.505 -6.97129,-1.689 -11.38344,-1.839 -6.550651,-0.22 -9.829071,0.37 -18.213489,3.278 C 67.824905,686.812 57.80974,690 56.506948,690 c -0.464004,0 -0.906009,-0.34 -1.154901,-0.89 z"
     id="Territory_3592"
     style="color:#000000;fill:#008000;fill-opacity:1;fill-rule:nonzero;stroke:none;stroke-width:3;marker:none;visibility:visible;display:inline;overflow:visible;enable-background:accumulate" />
  <path
     d="m 68.630943,641.1335 -0.97461,-0.55 1.118141,-2.098 c 1.412943,-2.651 5.384671,-6.459 12.519788,-12.0021 6.056527,-4.705 9.006967,-7.4041 9.321857,-8.5271 0.2617,-0.93 -0.86541,-2.207 -1.95276,-2.207 -1.17064,0 -9.233684,1.943 -13.728247,3.309 -2.270081,0.69 -7.471441,2.4491 -11.558559,3.9111 -20.397603,7.293 -24.637133,8.498 -26.4586,7.523 -1.241002,-0.66 -1.856288,-2.37 -2.206621,-6.117 -0.433804,-4.6401 -0.853108,-6.1001 -2.08277,-7.2481 -1.983508,-1.853 -4.019878,-1.674 -7.751313,0.68 -2.604874,1.645 -3.969657,1.816 -5.745144,0.72 -1.673466,-1.034 -3.683045,-3.436 -4.860926,-5.81 -1.326523,-2.6731 -1.428314,-6.1571 -0.246302,-8.4301 2.374342,-4.5661 9.270237,-8.4151 25.283249,-14.1111 12.79116,-4.5511 18.500974,-7.2801 24.456671,-11.6882 3.895126,-2.883 5.36925,-3.82 10.879842,-6.909 4.23658,-2.375 5.062038,-3.18 4.881216,-4.7571 -0.291802,-2.545 -6.512511,-3.176 -25.245638,-2.562 -27.088856,0.89 -39.470693,0.3 -42.598592,-2.01 -0.505805,-0.37 -1.132391,-1.114 -1.392424,-1.645 -0.4049034,-0.83 -0.3925034,-1.175 0.087,-2.429 0.970109,-2.5401 6.022887,-7.0381 13.345786,-11.8802 7.048887,-4.66 9.787373,-5.692 11.116535,-4.19 0.298203,0.34 0.745907,1.538 0.99491,2.669 0.568405,2.5801 1.227611,3.4001 2.971358,3.6961 2.10572,0.36 4.111209,-0.15 8.357269,-2.1311 4.145679,-1.931 6.505911,-2.42 8.229967,-1.706 0.566806,0.24 1.830828,1.347 2.809007,2.4721 2.822947,3.245 7.077997,4.91 12.65438,4.95 3.709405,0 6.234338,-0.48 8.719222,-1.762 3.774916,-1.943 3.999948,-3.5881 1.04326,-7.6301 -3.1663,-4.329 -4.972537,-9.3981 -5.555213,-15.5911 -0.739507,-7.8591 0.637806,-10.1531 8.281339,-13.7952 6.826148,-3.252 7.143118,-3.429 8.490788,-4.737 0.71441,-0.69 2.13596,-2.665 3.15907,-4.3811 4.13946,-6.945 5.891231,-7.7 17.197941,-7.411 8.12271,0.21 10.59378,0.74 16.02334,3.459 l 3.6185,1.811 -0.227,2.137 c -0.1248,1.1751 -0.85381,5.2481 -1.61996,9.0521 -0.7661,3.8031 -1.5453,8.2561 -1.7315,9.8941 -0.47191,4.1531 0.05,8.4071 1.37163,11.1721 1.12824,2.3621 4.46312,6.4891 5.83745,7.2251 l 0.87871,0.47 -0.269,4.228 c -0.148,2.3251 -0.2581,8.8781 -0.2447,14.5602 0.022,9.3771 0.1148,10.9621 1.00228,17.1271 0.78891,5.4801 0.95151,7.6811 0.84101,11.3831 -0.16801,5.6281 -0.53161,6.5131 -4.41645,10.7451 -1.50429,1.6381 -4.46209,5.2571 -6.5729,8.0401 -8.58038,11.3161 -15.52557,16.7472 -25.55389,19.9822 -5.091361,1.643 -9.169861,3.558 -15.813491,7.4241 -8.131737,4.733 -10.790712,5.942 -13.398956,6.093 -1.657706,0.1 -2.586405,0 -3.285521,-0.42 z"
     id="Territory_3594"
     style="color:#000000;fill:#008000;fill-opacity:1;fill-rule:nonzero;stroke:none;stroke-width:3;marker:none;visibility:visible;display:inline;overflow:visible;enable-background:accumulate" />
  <path
     d="m 247.01196,552.1367 c -1.44481,-0.27 -6.40975,-1.041 -11.03317,-1.722 -13.82117,-2.033 -21.81219,-3.6401 -26.44459,-5.3151 -0.8669,-0.31 -4.17684,-1.785 -7.35544,-3.268 -6.57088,-3.068 -8.25048,-3.666 -11.82127,-4.209 -3.18826,-0.48 -5.32627,-0.17 -13.64268,1.992 -8.09513,2.107 -10.66768,2.174 -19.01901,0.49 -7.3831,-1.488 -10.56178,-1.54 -14.68505,-0.24 -1.62325,0.51 -3.6703,0.93 -4.549,0.93 -1.51876,0 -1.71295,-0.12 -3.93398,-2.431 -1.42346,-1.481 -2.78554,-3.3431 -3.48588,-4.7661 -1.04491,-2.122 -1.16278,-2.69 -1.29545,-6.238 -0.1517,-4.0571 0.085,-5.8831 1.8292,-14.1322 0.4972,-2.351 1.06923,-5.503 1.27109,-7.005 0.2019,-1.5021 0.82661,-4.3851 1.38823,-6.4081 0.56171,-2.023 1.12217,-4.328 1.24555,-5.122 l 0.2243,-1.4451 4.07786,-1.061 c 2.24282,-0.58 8.41232,-2.586 13.70999,-4.449 18.92567,-6.6551 22.50377,-7.2831 35.8505,-6.2921 9.01574,0.67 18.17519,0.54 21.06665,-0.29 2.81764,-0.81 5.21053,-2.127 8.37333,-4.596 1.62878,-1.272 3.08042,-2.313 3.22588,-2.313 0.1455,0 0.58991,0.29 0.98761,0.65 1.52794,1.372 7.45793,4.655 9.64288,5.338 1.25868,0.39 4.81038,1.116 7.89266,1.605 8.45041,1.341 9.16932,1.5 10.09032,2.2241 1.35081,1.063 1.38314,2.364 0.2026,8.159 -2.28652,11.2241 -4.67637,16.0052 -9.15845,18.3232 -0.58201,0.3 -3.07593,0.84 -5.54206,1.196 -6.75435,0.98 -8.72301,2.344 -8.72587,6.0591 -0.002,3.157 1.73244,5.322 6.49167,8.104 1.31381,0.7701 3.45527,2.3751 4.75881,3.5711 1.30355,1.197 2.89095,2.442 3.52754,2.768 4.85082,2.482 9.71882,10.3561 9.73468,15.7452 0.005,1.424 -1.26815,4.449 -1.92227,4.571 -0.1927,0 -1.53239,-0.15 -2.97721,-0.42 l 0,0 z"
     id="Territory_3596"
     style="color:#000000;fill:#008000;fill-opacity:1;fill-rule:nonzero;stroke:none;stroke-width:3;marker:none;visibility:visible;display:inline;overflow:visible;enable-background:accumulate" />
  <path
     d="m 134.82166,490.8651 c -0.3481,-0.48 -2.39602,-1.734 -4.55336,-2.793 -2.15639,-1.058 -5.33927,-2.71 -7.07305,-3.672 -1.73379,-0.9601 -4.41327,-2.2511 -5.95442,-2.8651 -2.51398,-1.001 -3.18019,-1.117 -6.47979,-1.127 -4.14045,0 -4.47453,0.1 -12.915161,3.2651 -6.55213,2.478 -9.52528,3.243 -12.52047,3.222 -3.529862,0 -4.768314,-1.052 -4.174748,-3.4581 0.412404,-1.671 10.726278,-11.1481 15.775128,-14.4951 1.15585,-0.77 4.482571,-2.561 7.392701,-3.989 6.16181,-3.0231 7.52939,-4.1341 11.97592,-9.7251 7.21483,-9.0731 11.52427,-16.2182 13.53905,-22.4472 1.47292,-4.5551 1.30251,-5.3101 -1.59526,-7.0701 -1.3019,-0.79 -2.14165,-1.56 -2.27241,-2.081 -0.37011,-1.474 0.8953,-4.7771 4.29387,-11.2071 6.36707,-12.0461 9.10943,-15.1562 15.17706,-17.2112 1.58051,-0.53 2.99561,-0.65 7.88084,-0.65 5.21206,0 6.58132,0.13 10.98283,1.028 4.64775,0.95 5.05424,1.097 5.36931,1.927 1.15465,3.0411 2.41792,4.8551 6.13487,8.8081 2.22931,2.371 4.34353,4.9501 4.69827,5.7311 0.49691,1.094 0.64671,2.288 0.65271,5.202 0.008,4.0061 0.2949,5.0241 1.81429,6.4431 1.14397,1.068 4.42604,2.515 6.28138,2.769 2.31367,0.32 4.07136,-0.32 7.79032,-2.824 4.33341,-2.918 5.65883,-3.5771 8.54482,-4.2511 3.13494,-0.73 9.57516,-0.55 11.19066,0.31 0.61231,0.33 2.32158,1.7151 3.79842,3.0841 1.55311,1.441 3.47341,2.839 4.55481,3.317 2.26705,1.003 6.69411,1.777 11.98694,2.096 l 3.94041,0.24 -0.008,2.3261 c -0.012,3.626 -0.7084,4.767 -4.76587,7.806 -3.8945,2.9161 -5.28067,4.5861 -7.78641,9.3771 -3.74161,7.1551 -6.50492,15.7872 -6.9458,21.6982 l -0.2186,2.931 -3.00986,2.4001 c -3.32385,2.65 -5.87241,4.03 -8.78913,4.76 -3.41382,0.86 -10.07397,0.96 -18.38862,0.29 -14.83428,-1.194 -18.92442,-0.52 -38.35341,6.3061 -7.11514,2.501 -17.33785,5.691 -17.33785,5.412 0,0 -0.2847,-0.4 -0.6326,-0.88 l 1e-5,0 z"
     id="Territory_3598"
     style="color:#000000;fill:#008000;fill-opacity:1;fill-rule:nonzero;stroke:none;stroke-width:3;marker:none;visibility:visible;display:inline;overflow:visible;enable-background:accumulate" />
  <path
     d="m 224.71875,302.40625 c -4.28661,0.12448 -9.06145,1.21858 -14.125,3.3125 -6.71208,2.78 -9.50104,3.27925 -11.40625,2.03125 -1.18829,-0.78 -2.90241,-0.78 -7.40625,0 -5.62483,0.973 -9.53826,2.95465 -13.875,7.09375 -2.21937,2.118 -3.82696,4.2599 -7.875,10.375 -3.58367,5.413 -3.66535,5.14325 -5.34375,6.78125 -5.01432,4.8991 -10.97951,5.00725 -14.34375,2.78125 0.56748,1.45281 0.96208,2.99748 1.21875,4.5625 3.52921,3.20719 9.09964,2.83971 13.375,4.96875 2.2402,3.32032 0.0162,7.78802 0.65625,11.5625 2.43277,4.62265 -0.32688,11.502 -6,11.5 -6.87014,-2.69124 -6.76109,-11.72139 -7.0625,-18.03125 -5.92543,-1.42729 -12.4197,-2.52212 -16.96875,-6.8125 -2.23261,-4.21218 -7.54027,-3.30953 -10.875,-5.90625 -3.2941,-2.40643 -0.67946,-7.16526 3.03125,-7.03125 4.16871,-2.99459 9.65878,-3.08087 14.71875,-3.1875 0.24195,-0.0286 0.46729,-0.0267 0.6875,0 -0.23223,-8.29888 -0.25789,-8.30571 -2.1875,-9.15625 -1.35762,-0.6 -2.71072,-0.78 -7.9375,-1 -10.61617,-0.449 -20.61056,-2.568 -33.375,-7.125 -6.69152,-2.389 -9.55775,-3.66125 -10.78125,-4.78125 -0.7179,-0.66 -0.7591,-0.66 -2.28125,0 -0.85087,0.373 -2.913284,0.83125 -4.59375,1.03125 -3.751425,0.45 -4.743466,0.954 -7.25,3.625 -2.849397,3.036 -4.28316,3.75375 -8.53125,4.34375 -1.966479,0.275 -3.926196,0.74115 -4.375,1.03125 -2.205051,1.444 -1.825123,3.7105 1.6875,9.8125 3.622804,6.2931 3.816838,7.35765 1.90625,11.34375 -1.392893,2.907 -1.356126,3.453 0.34375,4.75 1.751427,1.33 4.136579,1.6 9.46875,1 6.36398,-0.716 9.240883,-0.259 11.46875,1.875 1.68432,1.614 1.85984,3.177 0.75,6.875 -0.529,1.762 -0.987,3.83375 -1,4.59375 -0.03221,1.831 0.94952,2.405 3.625,2.125 3.22199,-0.3411 6.878519,-2.56275 12.28125,-7.46875 3.57242,-3.24 4.63255,-4 5.96875,-4 1.17202,-0.033 1.95035,0.5099 2.65625,1.875 0.92801,3.50672 1.33488,5.89859 1.59375,7.6875 -2.89084,25.4599 9.88472,17.97747 37.59375,18.71875 10.49844,-2.18028 20.61702,-4.58567 28.875,-3.0625 0.84005,2.30331 1.65671,6.27801 2.15625,7.5 1.62261,3.97 2.00161,6.112 1.375,7.625 -0.35488,0.857 -1.0957,1.36125 -3.8125,2.65625 -6.16601,2.9401 -8.0546,4.95975 -7.625,8.09375 0.33625,2.453 1.37745,4.0125 5.65625,8.5625 5.28205,5.6181 5.78125,6.61375 5.78125,11.59375 0,4.3841 0.37293,5.4285 2.375,6.6875 2.77393,1.745 6.04673,2.18675 8.1875,1.09375 0.64756,-0.33 2.36767,-1.4285 3.8125,-2.4375 4.41955,-3.0871 6.97222,-4.06125 11.90625,-4.53125 2.75079,-0.263 7.29881,0.2925 8.78125,1.0625 0.59375,0.307 2.27624,1.66515 3.75,3.03125 3.20416,2.971 5.21273,3.94375 9.375,4.59375 l 0,0.0625 c 1.718,0.27 4.82204,0.53125 6.875,0.53125 l 3.71875,0 1.40625,-1.6875 c 0.77974,-0.931 3.8203,-5.30375 6.75,-9.71875 6.09632,-9.1861 8.18291,-11.907 11.84375,-15.5 2.74956,-2.7001 4.65443,-3.90625 6.15625,-3.90625 0.58221,0 1.5014,-0.55125 2.5625,-1.53125 0.90679,-0.839 2.94766,-2.2775 4.53125,-3.1875 3.12081,-1.788 4.4578,-3.10375 4.8125,-4.71875 0.3475,-1.583 -0.57465,-2.9445 -3.4375,-5.0625 -1.41232,-1.044 -2.88555,-2.3125 -3.28125,-2.8125 -0.62358,-0.7901 -1.00702,-0.90625 -2.71875,-0.90625 -1.08616,0 -2.5503,-0.24125 -3.25,-0.53125 -3.21041,-1.342 -6.72812,-5.0605 -8.9375,-9.4375 -1.37153,-2.7171 -2.65367,-7.95515 -4.4375,-17.90625 -2.48629,-13.8691 -3.56357,-17.23025 -7.84375,-24.78125 -3.03956,-5.3631 -3.5008,-6.62215 -4.0625,-10.90625 -0.50902,-3.882 -1.25509,-5.59725 -3.125,-7.28125 -3.40243,-3.06456 -8.08239,-4.50379 -13.59375,-4.34375 z"
     id="Territory_3600"
     style="color:#000000;fill:#008000;fill-opacity:1;fill-rule:nonzero;stroke:none;stroke-width:3;marker:none;visibility:visible;display:inline;overflow:visible;enable-background:accumulate" />
  <path
     style="color:#000000;fill:#008000;fill-opacity:1;fill-rule:nonzero;stroke:none;stroke-width:3;marker:none;visibility:visible;display:inline;overflow:visible;enable-background:accumulate"
     d="M 106.40625 179.1875 C 104.84787 179.31343 104.30529 180.18025 103.78125 182.84375 C 102.91265 187.25885 100.85376 191.04725 97.8125 193.78125 C 94.706 196.57825 92.79298 196.45825 89.8125 193.28125 C 87.28847 190.58625 85.644599 189.68125 83.1875 189.78125 C 80.921339 189.83325 79.767676 190.397 78.09375 192.25 C 75.691017 194.91 74.170052 198.72375 72.9375 205.21875 C 71.945791 210.44485 71.869092 213.1875 72.6875 214.4375 C 73.473447 215.6525 74.069929 215.6485 75.21875 214.4375 C 76.604323 212.9765 77.312388 211.4121 78.53125 207 C 79.731041 202.657 80.877807 200.30625 82.25 199.40625 C 84.046337 198.22925 87.52082 199.4585 89.46875 201.9375 C 90.60686 203.3855 90.53445 206.8149 89.28125 211 C 88.76454 212.725 88.34375 214.9475 88.34375 215.9375 C 88.34375 219.8086 90.4683 225.7364 94.28125 232.5625 C 98.2081 239.5935 98.01238 240.4425 91.625 245.1875 C 86.42397 249.0515 85.82188 250.5254 88.46875 253.0625 C 91.2427 255.7195 95.789489 256.6475 104.09375 256.1875 C 107.07971 256.0175 111.43829 255.875 113.75 255.875 C 117.69568 255.865 118.04731 255.9225 119.5625 256.8125 C 122.58589 258.5905 123.35491 260.9834 122.5 265.9375 C 121.41021 272.2526 119.62291 276.19375 117 278.09375 C 114.43485 279.94875 112.66175 280.24375 103.28125 280.34375 C 94.066029 280.44175 93.4699 280.54315 90.65625 282.53125 C 86.67238 285.34525 84.709505 293.3545 86.78125 298.3125 C 87.77756 300.6975 89.75453 303.28615 91.25 304.15625 C 93.10672 305.24025 105.07319 309.50475 110.40625 310.96875 C 119.16398 313.37375 126.23793 314.53375 133.90625 314.84375 C 139.44131 315.06875 140.22749 315.1675 141.78125 315.9375 C 142.7313 316.4085 143.69949 317.2075 143.9375 317.6875 C 144.2141 318.2475 144.367 320.25825 144.375 323.28125 C 144.51576 328.31098 145.78669 328.54099 149.25 332.5625 C 150.76546 333.62856 151.04686 333.8577 153.0625 334.125 C 158.93228 335.84667 164.45863 331.1002 168.8125 324.1875 C 174.46674 315.6545 177.52357 312.257 181.75 309.75 C 185.91581 307.279 191.28996 305.75 195.96875 305.75 C 197.78123 305.75 197.96875 305.69125 197.96875 305.03125 C 197.96875 304.54725 199.59253 302.7125 202.6875 299.6875 C 206.68779 295.7775 207.58149 294.7071 208.5625 292.625 L 209.71875 290.15625 L 209.71875 283.15625 L 209.71875 276.15625 L 211.1875 272.78125 C 212.97752 268.72915 213.08586 267.19175 211.8125 262.34375 C 210.47338 257.24565 210.73032 255.0445 212.9375 253.1875 C 213.94907 252.3355 215.31643 251.93875 219.90625 251.21875 L 221.71875 250.9375 L 220.46875 248.375 C 219.09078 245.481 217.8862 244.46875 215.75 244.46875 C 213.88494 244.46675 212.57661 245.0855 208.25 248.0625 C 203.95666 251.0136 202.45889 251.605 200.03125 251.375 C 196.61603 251.046 194.47932 248.71175 193.125 243.84375 C 192.73753 242.45075 192.1309 240.87375 191.75 240.34375 C 191.36155 239.79865 189.7218 238.725 188.03125 237.875 C 181.80755 234.738 181.28084 231.84885 185.65625 225.09375 C 188.17527 221.20575 188.5775 220.2586 188.5625 218.4375 C 188.54847 216.7705 187.30963 215.025 185.46875 214.125 C 184.34987 213.575 183.00383 213.43125 177.125 213.28125 C 170.28917 213.10525 170.08122 213.08625 168.5 212.15625 C 165.65449 210.48325 164.48787 208.0575 161.875 198.5625 C 159.1836 188.7824 157.14804 186.111 151.03125 184.25 C 146.67061 182.92 144.57834 182.74875 131.25 182.46875 C 117.07939 182.17675 116.78043 182.122 111.28125 180.125 C 109.93274 179.635 108.08796 179.1875 107.15625 179.1875 C 106.88959 179.17863 106.62888 179.16951 106.40625 179.1875 z M 73.5 232.96875 C 70.413061 232.95459 67.205994 233.2875 65.8125 233.90625 C 62.875442 235.20525 62.050265 236.7645 63.5625 238.1875 C 64.61284 239.1755 65.976185 239.70865 68.71875 240.21875 C 73.498796 241.11575 74.696561 241.60575 76.78125 243.59375 C 77.868831 244.63075 79.120746 245.6325 79.59375 245.8125 C 80.794732 246.2655 82.291397 245.60225 83.5625 244.03125 C 84.452458 242.93225 84.615799 242.3665 84.75 240.1875 C 84.888504 237.9374 84.819756 237.5025 84.09375 236.4375 C 82.991819 234.8215 81.584529 234.035 78.5 233.375 C 77.179507 233.0945 75.352163 232.97725 73.5 232.96875 z "
     id="Territory_3602" />
  <path
     d="m 224.53455,251.7739 c -0.51501,-0.36 -1.59188,-1.9541 -2.39295,-3.5401 -2.00617,-3.974 -2.65143,-4.615 -5.23159,-5.197 -2.31961,-0.52 -4.38866,0.26 -9.06786,3.448 -2.40844,1.639 -4.92626,3.132 -5.59514,3.316 -1.78368,0.49 -3.43491,0 -4.97232,-1.342 -1.3609,-1.229 -1.95064,-2.444 -2.97744,-6.13 -0.73911,-2.6541 -2.20687,-4.1841 -5.69463,-5.9361 -5.50944,-2.768 -5.62421,-4.317 -0.86781,-11.7091 3.07329,-4.777 3.21853,-7.3981 0.5722,-10.3271 -1.82853,-2.024 -3.50952,-2.458 -9.52803,-2.458 l -5.06147,0 0.2299,-1.732 c 0.77491,-5.8421 3.57801,-12.4332 6.60666,-15.5352 1.45727,-1.493 2.2101,-1.975 3.60524,-2.309 2.53629,-0.61 4.49669,-0.1 9.263,2.57 2.2154,1.225 4.76786,2.474 5.67215,2.776 5.72527,1.9111 14.75133,1.7051 28.47816,-0.65 6.67199,-1.145 7.62045,-1.408 8.87375,-2.462 1.28903,-1.085 1.48499,-1.832 0.91551,-3.488 -0.58751,-1.709 -1.70771,-2.865 -5.7741,-5.9611 -3.5858,-2.729 -5.59132,-4.764 -5.59132,-5.671 0,-0.64 8.43991,-8.8891 10.59954,-10.3581 1.66463,-1.132 3.84957,-1.792 4.86351,-1.471 0.3947,0.13 1.58084,1.01 2.63578,1.965 1.57223,1.424 2.11575,1.718 3.01429,1.629 0.92451,-0.1 1.34566,0.16 2.68846,1.6 l 1.59223,1.708 0.007,14.0542 c 0.007,13.3471 0.045,14.1891 0.76651,16.7401 1.50203,5.3111 2.88752,7.2911 10.62109,15.1772 3.21186,3.275 6.09947,6.344 6.41691,6.82 1.41635,2.125 0.542,3.8511 -4.37583,8.6391 -3.48539,3.394 -6.25493,5.2991 -9.58275,6.5931 -5.14241,1.998 -4.61935,3.01569 -5.47455,9.11179 0.84276,3.64975 5.40407,13.10591 7.89547,17.81319 0.97553,2.14897 -0.52915,3.50088 -3.18036,3.24587 -1.07951,0.60042 -8.04382,-7.88014 -17.44658,-14.57635 -3.91432,-1.92145 -8.12271,-4.35181 -12.50263,-6.3534 z"
     id="Territory_3606"
     style="color:#000000;fill:#008000;fill-opacity:1;fill-rule:nonzero;stroke:none;stroke-width:3;marker:none;visibility:visible;display:inline;overflow:visible;enable-background:accumulate" />
  <path
     d="m 299.83544,281.4481 c -1.25217,-0.15 -2.7946,-0.21 -3.42762,-0.12 l -1.15095,0.16 -3.352,-6.829 c -3.88384,-7.9111 -6.2839,-11.6811 -10.23369,-16.0722 -3.84211,-4.272 -4.69398,-5.896 -4.65965,-8.8821 0.015,-1.28 0.34881,-3.881 0.74241,-5.781 0.93171,-4.4961 0.94501,-8.2091 0.036,-9.9911 -0.88211,-1.729 -2.69744,-3.303 -4.68352,-4.062 -1.18684,-0.4501 -1.63975,-0.8401 -1.80565,-1.5311 -0.41941,-1.755 -2.66606,-4.516 -6.91415,-8.496 -4.55225,-4.2641 -7.84818,-8.1341 -9.19905,-10.8001 -2.13683,-4.2161 -2.78864,-10.2031 -2.2724,-20.8692 0.35951,-7.4281 0.21141,-12.8072 -0.3973,-14.4282 -0.1606,-0.43 -1.16455,-1.726 -2.23113,-2.886 -1.06658,-1.161 -1.93925,-2.353 -1.93925,-2.65 0,-1.34 1.01352,-2.8711 2.30831,-3.4851 1.20116,-0.57 1.99532,-0.61 7.48611,-0.42 4.6634,0.16 6.45404,0.1 7.43665,-0.25 1.15008,-0.41 1.52081,-0.38 3.32748,0.26 1.62044,0.58 2.88832,0.73 6.24547,0.74 l 4.21227,0 1.16851,2.7391 c 1.51123,3.542 3.97369,7.854 8.3373,14.5981 1.93187,2.986 4.24964,6.9731 5.15058,8.8591 l 1.63809,3.429 -1.10292,2.069 c -1.38649,2.6021 -3.60368,4.8661 -6.38983,6.5261 -3.85338,2.296 -5.14232,3.954 -5.14232,6.6121 0,2.957 1.91206,5.373 7.35545,9.2941 1.8301,1.318 4.98244,3.926 7.00518,5.794 4.36751,4.035 7.03891,5.8331 11.66075,7.8491 4.41372,1.925 6.94534,3.592 9.41394,6.201 3.75619,3.9701 6.06057,8.3591 6.4672,12.3182 0.15501,1.509 0.023,2.507 -0.5582,4.224 -0.99751,2.945 -2.19362,4.628 -6.47202,9.1041 -4.54095,4.751 -5.24287,5.725 -6.86692,9.5241 -0.7368,1.724 -1.68113,3.687 -2.0985,4.362 -1.41977,2.298 -4.88701,3.392 -9.09445,2.87 l 0,0 z"
     id="Territory_3608"
     style="color:#000000;fill:#008000;fill-opacity:1;fill-rule:nonzero;stroke:none;stroke-width:3;marker:none;visibility:visible;display:inline;overflow:visible;enable-background:accumulate" />
  <path
     d="m 271.25033,163.348 c -5.92503,-1.346 -7.22134,-3.795 -4.50305,-8.5091 0.5309,-0.92 2.50657,-4.042 4.39038,-6.938 6.59896,-10.1421 7.62065,-12.8831 5.48751,-14.7182 -1.47351,-1.268 -3.48553,-1.662 -7.2623,-1.422 -12.76224,0.81 -19.45815,0.61 -29.94718,-0.88 -7.13391,-1.015 -17.0303,-3.357 -21.92699,-5.189 -5.08926,-1.904 -5.49007,-5.2061 -1.10629,-9.1131 2.47181,-2.203 5.31213,-3.7031 8.73781,-4.6131 2.28808,-0.61 4.28773,-0.77 12.19391,-0.98 10.1114,-0.27 11.05158,-0.44 12.51399,-2.253 1.18372,-1.468 0.8144,-2.492 -1.83108,-5.081 -1.34849,-1.3191 -2.45182,-2.6461 -2.45182,-2.9471 0,-0.94 1.98728,-2.593 3.59536,-2.998 0.84311,-0.21 3.41317,-0.56 5.71127,-0.77 6.40743,-0.59 7.83076,-0.99 9.72623,-2.745 1.31954,-1.221 1.98443,-2.5571 1.97492,-3.9671 -0.009,-1.379004 -0.6777,-2.264004 -2.79428,-3.700004 -2.09219,-1.419 -3.97107,-3.426 -4.90143,-5.2351 -1.08033,-2.1 -1.86955,-7.061 -1.64915,-10.366 0.2215,-3.3211 1.07663,-5.2201 4.13188,-9.1751 2.73921,-3.5461 3.27952,-4.7731 4.51608,-10.2551 1.23172,-5.4611 1.42574,-5.9821 2.81479,-7.5641 1.60877,-1.833 3.10026,-2.134 7.96118,-1.611 4.38141,0.47 6.36599,0.32 9.42352,-0.72 3.53167,-1.204 5.98813,-2.6311 12.02856,-6.9861 2.15046,-1.551 3.53144,-1.766 5.35884,-0.84 0.61651,0.31 3.25535,2.184 5.86408,4.157 5.90046,4.4611 6.73135,4.9101 8.8171,4.7701 1.02865,-0.1 1.32599,-1.255 1.44892,-5.7791 0.15761,-5.8 0.64141,-6.622 4.6463,-7.891 4.50581,-1.4281 9.09297,-1.2601 11.62082,0.43 1.38054,0.92 2.95638,4.039 4.74828,9.394 3.10755,9.2881 2.63931,12.6482 -3.09531,22.2103 -4.65312,7.759 -6.13439,11.4851 -6.13439,15.4301 0,2.038 0.5177,2.72 2.02612,2.672 2.4488,-0.1 8.82201,-4.005 12.64958,-7.794 5.84723,-5.7901 9.59668,-14.2602 9.60725,-21.7032 0.005,-2.9731 -0.13611,-3.7191 -1.31828,-7.0051 -0.7276,-2.023 -1.71221,-4.7661 -2.18795,-6.0961 -1.71975,-4.808 -0.84061,-8.9861 2.54788,-12.1101 3.61017,-3.328 8.80247,-4.576 14.0605,-3.38 3.30096,0.75 4.49466,0.72 5.34656,-0.13 0.99671,-1 0.87621,-2.109 -0.56101,-5.1791 -1.56926,-3.351 -1.81791,-4.662 -1.01131,-5.332 1.45112,-1.204 6.4354,0.23 8.87544,2.562 0.6455,0.61 1.77175,1.986 2.50283,3.046 3.22231,4.6691 5.94358,6.3961 15.50553,9.8371 7.34677,2.6441 8.82189,4.0831 6.73128,6.5681 -1.01699,1.208 -6.30706,4.849 -11.96537,8.2361 -5.94997,3.56 -7.74347,5.047 -15.52403,12.8691 -8.97251,9.0201 -11.91312,11.5281 -14.45421,12.3291 -2.4238,0.76 -4.06759,1.869 -4.89931,3.293 -0.95061,1.6281 -1.5227,6.7521 -1.06856,9.5721 0.3428,2.129 0.3199,2.298 -0.3769,2.7761 -2.74379,1.885 -4.18296,4.85 -5.14235,10.594104 -1.39968,8.38 -1.70852,9.072 -5.62459,12.5901 -1.57819,1.417 -4.77551,4.401 -7.10514,6.63 -4.46531,4.2731 -6.74362,5.8071 -10.19012,6.8621 -1.83774,0.56 -3.1788,0.63 -10.68291,0.55 -9.6873,-0.11 -10.39357,0 -11.64486,2.455 -1.13347,2.185 -1.16062,3.5351 -0.1141,5.6741 1.51202,3.091 5.907,6.063 12.77116,8.6381 2.54062,0.95 4.24166,2.422 4.24166,3.663 0,1.713 -6.37847,5.676 -12.10951,7.5251 -15.05472,1.88943 -22.92988,1.89403 -31.29626,14.2081 -0.65381,0.98 -1.51821,1.995 -1.921,2.247 -1.04986,0.66 -5.27237,0.76 -7.7765,0.19 l 0,0 2e-5,-0.003 z"
     id="Territory_3610"
     style="color:#000000;fill:#008000;fill-opacity:1;fill-rule:nonzero;stroke:none;stroke-width:3;marker:none;visibility:visible;display:inline;overflow:visible;enable-background:accumulate" />
  <path
     d="m 436.2615,137.5848 c -4.32489,-0.9 -8.12117,-2.984 -12.54825,-6.8771 -6.35615,-5.59 -9.16417,-7.8591 -10.52535,-8.5071 -0.79451,-0.38 -2.94194,-0.94 -4.77205,-1.249 -2.23153,-0.38 -3.54818,-0.78 -3.99768,-1.228 -0.65991,-0.66 -0.65451,-0.69 0.3503,-1.932 2.17827,-2.701 2.59664,-3.454 2.59664,-4.672 0,-2.7291 -2.80441,-6.3101 -5.51352,-7.0391 -0.74261,-0.2 -3.4704,-0.33 -6.06183,-0.28 -4.37534,0.1 -4.82421,0 -6.28786,-0.75 -1.75993,-0.93 -3.34852,-2.13 -6.46811,-4.8811 -1.16229,-1.025 -3.29563,-2.553 -4.74074,-3.395 -3.27086,-1.908 -3.98772,-2.572 -5.06073,-4.69 -1.36643,-2.696104 -2.42897,-3.696104 -6.37703,-6.004104 -6.69937,-3.916 -7.2889,-4.8491 -7.07024,-11.1881 0.17041,-4.9421 0.71551,-5.8691 4.24793,-7.2311 1.38981,-0.53 3.12104,-1.339 3.8472,-1.786 1.10027,-0.68 1.44775,-0.74 2.0854,-0.4 2.65084,1.419 6.60439,1.662 13.58191,0.83 2.40803,-0.29 6.03322,-0.52 8.05596,-0.52 2.02276,0 4.29911,-0.18 5.05856,-0.39 2.85723,-0.79 4.40173,-3.468 6.31645,-10.9391 1.72331,-6.7241 2.9389,-8.8931 5.65724,-10.0961 1.39849,-0.62 2.06789,-0.65 8.26906,-0.43 7.65888,0.27 10.94454,-0.1 16.54533,-1.659 4.03023,-1.152 5.22091,-1.225 7.18261,-0.44 1.3322,0.53 1.4081,0.64 1.4081,2.04 0,0.81 0.2295,3.041 0.51001,4.953 0.2805,1.9121 0.6819,6.9381 0.892,11.1691 0.60371,12.1522 1.40113,17.1112 5.40895,33.638404 2.14968,8.865 2.99627,14.2891 2.99627,19.1991 l 0,3.2271 -2.4674,2.797 c -4.083,4.629 -5.27339,6.9381 -6.13888,11.9041 -0.4113,2.361 -1.50336,4.9021 -2.52813,5.8841 -1.12604,1.079 -2.46918,1.366 -4.45211,0.95 l 0,0 z"
     id="Territory_3612"
     style="color:#000000;fill:#008000;fill-opacity:1;fill-rule:nonzero;stroke:none;stroke-width:3;marker:none;visibility:visible;display:inline;overflow:visible;enable-background:accumulate" />
  <path
     d="m 473.56411,165.668 c -2.48028,-1.797 -3.21088,-3.082 -3.421,-6.019 -0.24491,-3.423 0.5962,-7.0231 4.0003,-17.1262 2.43188,-7.217 3.02581,-9.3941 3.15403,-11.5581 0.28451,-4.804 -0.6916,-5.401 -7.24004,-4.433 -5.92244,0.88 -8.86567,0.84 -10.94692,-0.15 -2.04576,-0.97 -2.77728,-1.958 -3.78037,-5.1021 -0.42771,-1.341 -1.07088,-3.022 -1.42931,-3.737 -0.5239,-1.045 -0.6517,-2.1 -0.6517,-5.3841 0,-5.496 -0.70351,-9.9211 -3.19716,-20.1111 -3.78046,-15.448204 -4.61559,-20.882204 -5.22175,-33.975404 -0.1828,-3.949 -0.56941,-8.5991 -0.85901,-10.3321 -1.00431,-6.012 -0.59901,-9.2161 1.28908,-10.1921 2.01664,-1.043 10.415,-2.643 14.9387,-2.846 5.27387,-0.24 6.76734,0.1 12.83983,2.531 6.28626,2.5601 7.19294,2.7831 11.38342,2.7931 3.22889,0 3.9175,0.12 5.64193,0.93 2.22586,1.044 5.55798,4.183 6.59293,6.212 1.27688,2.5031 1.60857,5.5661 1.05862,9.7751 -0.98831,7.5651 -0.77361,8.2671 3.28488,10.7391 2.62296,1.597 3.35986,2.622 4.95273,6.8851 1.76756,4.732 5.94508,11.9931 11.16562,19.407204 3.1764,4.512 11.47801,15.5991 13.37584,17.8631 1.64025,1.9581 2.26325,3.0141 2.26325,3.8381 0,0.93 -2.71527,3.571 -6.71569,6.524 -4.14105,3.0581 -9.8361,8.4801 -12.10868,11.5301 -3.138,4.2101 -5.26375,9.8891 -5.48666,14.6562 -0.077,1.652 -0.3407,2.828 -0.80981,3.616 -0.3824,0.64 -1.53997,2.664 -2.57234,4.4941 -2.20265,3.905 -4.23126,6.047 -7.22278,7.628 -3.9483,2.0871 -6.74129,2.6061 -14.99598,2.7841 l -7.35545,0.16 -1.92645,-1.3961 0,0 z"
     id="Territory_3614"
     style="color:#000000;fill:#008000;fill-opacity:1;fill-rule:nonzero;stroke:none;stroke-width:3;marker:none;visibility:visible;display:inline;overflow:visible;enable-background:accumulate" />
  <path
     d="m 370.93811,190.3203 c -3.71691,-1.402 -5.39111,-2.259 -8.93161,-4.5731 -4.54453,-2.971 -6.01141,-4.471 -7.50826,-7.68 -0.7274,-1.5591 -1.75185,-3.2291 -2.27666,-3.7111 -0.93371,-0.86 -1.08295,-0.88 -6.96806,-0.94 -6.45797,-0.1 -9.36514,-0.41 -12.9533,-1.518 -4.62148,-1.427 -7.58499,-4.459 -7.65264,-7.8301 -0.0493,-3.80258 2.28737,-6.38356 4.15897,-9.23863 1.85735,-2.83333 3.25665,-5.93659 1.4114,-10.77157 -0.9724,-1.156 -2.27026,-2.574 -2.8842,-3.152 -0.61581,-0.58 -1.30418,-1.716 -1.53542,-2.535 -0.5412,-1.916 -1.86294,-2.957 -5.83761,-4.6011 -6.33621,-2.62 -9.9638,-5.022 -11.20289,-7.418 -0.86801,-1.678 -0.6664,-3.6561 0.50661,-4.9671 l 1.02278,-1.144 9.22231,0 c 8.78397,0 9.33052,0 11.499,-0.82 3.62218,-1.303 5.91026,-2.91 11.08863,-7.7881 2.66649,-2.512 5.8894,-5.543 7.16201,-6.736 2.85493,-2.6781 3.55496,-4.3551 4.7314,-11.3361 0.89701,-5.324104 1.58009,-7.338104 3.10121,-9.146104 1.63762,-1.946 2.1148,-2.03 3.56092,-0.62 0.69691,0.68 3.08135,2.284 5.29874,3.572 3.3153,1.925 4.19423,2.613 4.94696,3.872004 2.75259,4.6041 2.73083,4.5801 5.70985,6.2961 1.60117,0.92 4.01453,2.628 5.36303,3.792 6.69221,5.7771 6.95504,5.8901 14.18551,6.1231 6.27234,0.2 6.7679,0.34 8.23752,2.264 1.91231,2.507 1.82236,4.4721 -0.29521,6.4501 -1.14894,1.073 -1.77229,2.621 -1.4971,3.717 0.3043,1.212 1.76148,1.868 5.90682,2.658 4.31059,0.82 5.26022,1.4031 11.64076,7.1351 5.78996,5.2001 8.54549,7.0401 12.75469,8.5151 2.73005,0.96 3.74982,1.151 5.45881,1.043 1.51021,-0.1 2.49578,0 3.5026,0.5 0.77061,0.35 2.14971,0.64 3.06475,0.64 0.91511,0 1.66372,0.13 1.66372,0.29 0,0.59 -2.29153,3.861 -4.7756,6.8231 -3.12116,3.722 -3.86928,5.146 -5.56058,10.5831 -1.65505,5.321 -2.13696,6.252 -4.74763,9.1741 -3.64306,4.077 -3.95121,4.808 -4.09814,9.7161 -0.07,2.325 -0.2877,4.647 -0.4847,5.16 -0.54741,1.426 -1.84687,1.793 -4.15099,1.171 -4.34023,-1.17 -5.91662,-0.52 -9.56804,3.9461 -2.4665,3.017 -4.58235,4.25 -6.16647,3.594 -0.5492,-0.23 -2.28154,-1.813 -3.84959,-3.523 -5.37117,-5.8571 -10.14059,-6.9591 -16.65642,-3.8491 -1.18653,0.57 -4.42202,2.611 -7.18999,4.5451 -2.76797,1.934 -5.12221,3.499 -5.23166,3.478 -0.1095,0 -1.53874,-0.54 -3.17621,-1.161 l 0,0 -2e-5,0.001 z"
     id="Territory_3618"
     style="color:#000000;fill:#008000;fill-opacity:1;fill-rule:nonzero;stroke:none;stroke-width:3;marker:none;visibility:visible;display:inline;overflow:visible;enable-background:accumulate" />
  <path
     d="m 325.375,141.125 -1.9375,1.5625 c -2.26833,1.848 -7.01134,4.28925 -10.46875,5.40625 -0.6405,0.20817 -1.27343,0.3416 -1.96875,0.46875 2.66308,2.14888 2.51421,7.2161 4.1875,10.125 0.56862,6.17798 7.22094,9.33183 8.53125,15.1875 1.23805,2.82498 -2.00265,5.41231 -4.40625,3.53125 -5.48102,-5.14973 -10.69792,-11.12669 -17.75,-14.4375 -3.55542,-2.32619 -10.65247,-0.2118 -11.75,-5.625 0.026,-1.50621 0.40466,-2.77953 1.03125,-3.84375 -2.96627,1.68372 -5.56582,3.99593 -8.125,7.59375 l -2.09375,3 1.28125,2.9375 c 1.75005,4.018 3.81022,7.6279 7.75,13.625 1.83505,2.793 4.27715,6.96925 5.4375,9.28125 1.98195,3.948 2.21075,4.27625 3.84375,5.15625 2.58544,1.394 3.70972,2.69265 5.75,6.59375 2.84135,5.433 4.22512,6.47115 12.40625,9.65625 6.88048,2.678 8.33641,3.531 12.71875,7.375 4.78829,4.2011 6.18297,5.24225 8.375,6.28125 2.36227,1.122 3.29463,1.0715 6.625,-0.4375 2.60683,-1.178 3.15864,-1.2975 6.6875,-1.4375 2.11907,-0.08 4.70351,-0.002 5.75,0.1875 l 1.90625,0.375 1.5,-1.53125 c 0.82848,-0.829 3.20706,-2.5649 5.28125,-3.875 5.19992,-3.284 7.68364,-5.23175 8.75,-6.84375 0.89351,-1.35 0.90055,-1.43515 0.65625,-5.65625 -0.27643,-4.775 -1.39334,-12.02875 -1.96875,-12.71875 -0.20548,-0.248 -1.19099,-0.70125 -2.1875,-1.03125 -5.04659,-1.665 -11.35019,-5.32825 -14.875,-8.65625 -1.41962,-1.341 -2.27659,-2.5825 -3.25,-4.6875 -0.80216,-1.734 -1.63279,-3.02125 -2.125,-3.28125 -0.53797,-0.28 -2.89297,-0.43125 -6.96875,-0.53125 -4.20514,-0.06 -7.00358,-0.24625 -8.90625,-0.65625 -7.44635,-1.601 -11.428,-4.7959 -12,-9.625 0.14902,-4.57159 2.04759,-7.5923 3.78125,-10.125 2.32978,-3.40355 4.3795,-5.92376 1.5,-10.125 L 325.375,141.125 z m 5.875,51.78125 c 7.8836,1.21232 8.6315,11.64247 12.4375,17.0625 3.10262,2.6122 -0.61988,7.62788 -4.09375,5.78125 -4.02947,-4.37344 -6.31219,-10.41196 -10.84375,-14.5625 -4.10227,-2.23376 -1.87358,-8.44025 2.5,-8.28125 z"
     id="Territory_3620"
     style="color:#000000;fill:#008000;fill-opacity:1;fill-rule:nonzero;stroke:none;stroke-width:3;marker:none;visibility:visible;display:inline;overflow:visible;enable-background:accumulate" />
  <path
     d="m 434.70251,243.5388 c -5.77215,-3.144 -7.10415,-6.4541 -5.91512,-14.6992 0.7927,-5.497 -0.039,-6.94 -5.56317,-9.654 -4.26558,-2.0961 -6.15649,-3.6611 -8.66904,-7.1761 -1.98116,-2.772 -3.05532,-4.9691 -4.19209,-8.5751 -0.74901,-2.377 -1.90824,-8.5531 -1.94082,-10.3411 -0.005,-0.19 0.78901,-0.72 1.76123,-1.163 1.31367,-0.6 2.40199,-1.56 4.23744,-3.727 1.3584,-1.6031 3.00483,-3.2041 3.6588,-3.5561 1.13973,-0.61 1.28698,-0.62 3.55582,0 2.9442,0.76 4.0754,0.76 5.19918,0 1.60598,-1.052 2.01503,-2.391 2.17818,-7.128 0.098,-2.8451 0.327,-4.7231 0.6538,-5.3611 0.27671,-0.54 1.52201,-2.093 2.76744,-3.45 l 2.26447,-2.467 5.15966,0 c 6.60026,0.1 11.92303,0.53 18.29355,1.628 5.9834,1.03 7.28686,1.574 8.18719,3.417 l 0.65571,1.343 -1.42902,2.884 c -5.19224,10.4781 -6.59405,23.6423 -4.05057,38.0374 0.7289,4.126 4.25176,17.1942 5.39666,20.0192 l 0.94451,2.331 -1.08652,0.2 c -0.5976,0.11 -5.97262,1.771 -11.94455,3.691 -5.97194,1.9211 -12.11898,3.7401 -13.66012,4.0441 -1.54114,0.3 -3.11733,0.63 -3.50259,0.72 -0.4102,0.1 -1.63692,-0.34 -2.96003,-1.057 l 0,0 z"
     id="Territory_3622"
     style="color:#000000;fill:#008000;fill-opacity:1;fill-rule:nonzero;stroke:none;stroke-width:3;marker:none;visibility:visible;display:inline;overflow:visible;enable-background:accumulate" />
  <path
     d="m 481.73975,241.4378 c -5.09639,-0.92 -9.44404,-2.8521 -11.45709,-5.0811 -1.47526,-1.633 -2.54869,-4.475 -4.76225,-12.6091 -2.31776,-8.5161 -3.16974,-13.3771 -3.50028,-19.9692 -0.54171,-10.8031 0.98081,-19.4842 4.75576,-27.1152 0.84951,-1.7181 1.73027,-3.3471 1.95714,-3.6201 0.22691,-0.27 1.52491,-1.055 2.88452,-1.737 1.35957,-0.68 2.89034,-1.536 3.4017,-1.897 0.77861,-0.55 1.5837,-0.66 4.95407,-0.66 8.17003,0 13.6096,-0.91 17.99223,-3.0021 3.88483,-1.856 5.86105,-3.906 8.86743,-9.2 3.77591,-6.6471 8.03841,-10.9961 14.01616,-14.2992 7.1695,-3.961 16.87964,-4.238 22.08576,-0.63 2.14435,1.486 5.04805,4.7931 6.52577,7.4331 4.35945,7.7871 6.52965,19.4772 5.21776,28.1043 -1.01469,6.674 -3.19941,11.5591 -5.16906,11.5591 -0.77991,0 -0.72951,0.43 -0.81321,-7.0051 -0.078,-6.9631 -0.73911,-10.3281 -3.32607,-16.9332 -2.5169,-6.427 -4.85522,-8.954 -8.57011,-9.262 -2.31426,-0.1901 -3.71784,0.32 -4.9604,1.791 -0.82381,0.98 -0.88841,1.279 -0.72681,3.37 0.098,1.262 0.61101,4.265 1.14086,6.6731 0.85361,3.88 0.96501,5.116 0.97781,10.8581 0.014,6.242 -0.028,6.637 -1.13464,10.7641 -1.00854,3.759 -1.09842,4.437 -0.735,5.538 0.5348,1.62 1.46317,1.956 4.66214,1.686 1.9873,-0.17 2.79,-0.1 3.65061,0.35 4.69929,2.4301 4.03502,9.9921 -1.14433,13.0282 -4.10976,2.408 -9.66705,2.535 -20.26482,0.46 -3.16775,-0.62 -4.03846,-0.68 -5.16777,-0.34 -2.31685,0.7 -2.56401,1.443 -3.65004,11.0611 -1.20215,10.6461 -3.309,16.2581 -7.14744,19.0381 -2.04378,1.4811 -6.15802,2.1631 -12.79927,2.1221 -2.88964,0 -6.38219,-0.24 -7.76118,-0.49 l 0,0 z"
     id="Territory_3624"
     style="color:#000000;fill:#008000;fill-opacity:1;fill-rule:nonzero;stroke:none;stroke-width:3;marker:none;visibility:visible;display:inline;overflow:visible;enable-background:accumulate" />
  <path
     d="m 413.21972,270.544 c -2.94493,-0.65 -4.65691,-2.457 -7.16323,-7.572 -4.85674,-9.9121 -10.1625,-16.0162 -16.55463,-19.0432 -2.22517,-1.054 -2.43124,-1.083 -9.10674,-1.311 -6.64681,-0.23 -6.99922,-0.28 -13.13474,-1.872 -7.89683,-2.0541 -9.08826,-2.5631 -9.87878,-4.2201 -0.5774,-1.211 -0.576,-1.35 0.028,-2.912 0.89441,-2.311 1.49381,-4.1241 2.14339,-6.4831 0.78201,-2.839 2.5267,-4.593 7.99135,-8.036 4.94623,-3.1171 7.48481,-5.2041 8.6801,-7.1381 0.73251,-1.185 0.76071,-1.506 0.5591,-6.3771 -0.1846,-4.461 -0.4058,-6.258 -1.45026,-11.7841 -0.192,-1.015 -0.037,-1.161 4.62062,-4.369 8.05575,-5.5491 11.57885,-6.8931 15.26129,-5.8221 2.57609,0.75 4.62605,2.215 7.37954,5.2801 1.30918,1.457 2.80337,2.868 3.32038,3.135 0.87921,0.45 0.96841,0.73 1.38011,4.192 0.85181,7.1711 3.28619,13.4542 7.04679,18.1862 2.56247,3.225 3.52629,3.968 7.73376,5.9691 3.96701,1.886 4.39259,2.205 5.05666,3.795 0.4488,1.074 0.446,1.706 -0.023,5.218 -0.2999,2.2431 -0.4397,4.8391 -0.3188,5.9191 0.4504,4.025 3.03553,7.5381 7.01931,9.5381 1.15588,0.58 2.15917,1.108 2.22963,1.171 0.07,0.1 -0.045,0.61 -0.2575,1.222 -0.2121,0.61 -0.5536,2.468 -0.75881,4.1331 -0.5936,4.814 -3.01376,9.37 -7.20153,13.5581 -4.82143,4.821 -9.70088,6.701 -14.60172,5.623 l 0,0 z"
     id="Territory_3626"
     style="color:#000000;fill:#008000;fill-opacity:1;fill-rule:nonzero;stroke:none;stroke-width:3;marker:none;visibility:visible;display:inline;overflow:visible;enable-background:accumulate" />
  <path
     d="m 358.02738,292.5232 c -1.68631,-0.74 -5.13777,-0.97 -7.57528,-0.52 -1.99286,0.37 -2.12919,0.35 -2.73535,-0.4 -0.3509,-0.43 -3.41022,-4.968 -6.79852,-10.0731 -8.30131,-12.5081 -10.92262,-15.7631 -16.15179,-20.0571 l -1.16332,-0.9601 0.69701,-0.98 c 1.1569,-1.625 2.15502,-5.117 2.15502,-7.54 0,-3.7641 -1.86237,-8.0701 -5.38674,-12.4552 -2.63513,-3.278 -5.80371,-5.593 -10.59494,-7.74 -5.26853,-2.3611 -7.79662,-4.0471 -12.38933,-8.2651 -2.02275,-1.857 -5.20065,-4.469 -7.062,-5.8031 -4.07465,-2.922 -5.72772,-4.676 -6.25661,-6.64 -0.69081,-2.566 -0.022,-3.6121 4.04536,-6.3321 3.79097,-2.535 5.59623,-4.368 7.07073,-7.1771 l 0.94861,-1.807 1.63207,0.83 c 2.05664,1.042 2.96127,2.1211 4.8631,5.8011 2.91869,5.648 4.53229,6.9411 12.70332,10.1761 7.90567,3.131 8.30772,3.368 13.57871,8.0031 4.31083,3.792 5.72307,4.834 7.88917,5.826 2.77939,1.273 4.29816,1.212 7.69914,-0.31 1.54017,-0.69 3.64525,-1.362 4.67794,-1.498 2.03748,-0.27 7.35063,0.1 8.06169,0.5 0.5456,0.34 -0.23401,3.728 -1.54617,6.7251 -1.08781,2.485 -1.11133,4.387 -0.073,5.927 1.32446,1.966 1.79416,2.149 13.57136,5.2941 1.98362,0.53 4.35436,0.76 9.68059,0.95 l 7.05363,0.25 2.73173,1.35 c 2.01576,1 3.55145,2.14 5.85919,4.364 3.60355,3.4711 6.15849,7.1561 9.38756,13.5382 1.27571,2.522 2.88141,5.122 3.73067,6.04 l 1.49104,1.614 -1.2783,1.3091 c -1.685,1.725 -3.86553,2.621 -8.00544,3.287 -1.87072,0.3 -3.76348,0.78 -4.2061,1.074 -1.91997,1.258 -2.16878,4.664 -0.74431,10.1891 0.50571,1.961 0.91951,4.074 0.91951,4.694 l 0,1.129 -6.04199,-0.23 c -26.33967,-1.017 -27.50274,-1.017 -29.98994,0 -0.64961,0.26 -1.20128,0.4701 -1.22592,0.45 -0.025,0 -0.57451,-0.26 -1.22182,-0.54 l 0,0 z"
     id="Territory_3628"
     style="color:#000000;fill:#008000;fill-opacity:1;fill-rule:nonzero;stroke:none;stroke-width:3;marker:none;visibility:visible;display:inline;overflow:visible;enable-background:accumulate" />
  <path
     d="m 464.1071,303.5653 c -0.67421,-0.15 -3.35372,-0.37 -5.95441,-0.49 -2.60064,-0.12 -5.73573,-0.37 -6.96679,-0.57 -6.81999,-1.07 -14.13219,-7.091 -20.52896,-16.9051 -2.10507,-3.2301 -5.45698,-9.5611 -6.74622,-12.7421 -0.4098,-1.0121 -0.95091,-1.8411 -1.20239,-1.8421 -0.2515,0 0.3558,-0.47 1.34952,-1.04 3.85953,-2.213 7.71048,-6.493 10.40931,-11.5671 1.35844,-2.554 1.64092,-3.45 1.98609,-6.304 0.69091,-5.7131 1.14008,-6.2091 6.47053,-7.1381 1.72973,-0.3 6.38759,-1.635 10.3508,-2.963 6.49096,-2.1751 7.27276,-2.3641 7.88081,-1.9071 0.37131,0.2801 1.73237,1.0441 3.02463,1.7011 1.2923,0.66 2.89268,1.738 3.55642,2.401 1.59343,1.594 6.97584,9.3271 6.68884,9.6111 -0.61791,0.61 -5.63189,0 -10.94954,-1.327 -3.14058,-0.79 -5.9504,-1.429 -6.24406,-1.429 -0.2937,0 -0.9691,0.44 -1.50097,0.97 l -0.96711,0.97 0.064,9.6291 c 0.055,8.259 0.1524,9.8691 0.68761,11.3241 0.93831,2.55 2.4095,3.787 6.30072,5.294 4.32348,1.675 5.49311,2.787 6.56122,6.2341 1.43611,4.636 0.88521,11.2071 -1.33289,15.8991 -1.07464,2.273 -1.4161,2.5271 -2.93697,2.188 z"
     id="Territory_3630"
     style="color:#000000;fill:#008000;fill-opacity:1;fill-rule:nonzero;stroke:none;stroke-width:3;marker:none;visibility:visible;display:inline;overflow:visible;enable-background:accumulate" />
  <path
     d="m 439.8637,365.0559 c -0.1057,-0.11 -2.22047,-0.35 -4.69932,-0.54 -6.07167,-0.46 -7.75781,-0.84 -11.86249,-2.662 -5.71654,-2.535 -7.10664,-2.876 -14.01215,-3.436 -3.49096,-0.28 -7.01575,-0.75 -7.83286,-1.039 -0.81711,-0.29 -3.17139,-1.4321 -5.23173,-2.5431 -3.54427,-1.91 -3.87898,-2.019 -6.21273,-2.023 -2.31355,0 -2.60886,0.1 -4.75852,1.489 -2.56243,1.668 -6.05499,4.9761 -6.82399,6.4641 -0.2775,0.54 -0.69761,0.97 -0.93341,0.97 -1.07404,0 -4.38947,-2.139 -5.62516,-3.597 l -1.36484,-1.6101 0.722,-1.169 c 0.39711,-0.64 1.30339,-2.345 2.014,-3.784 0.71061,-1.44 3.14572,-5.6911 5.41135,-9.4471 6.64386,-11.0161 10.49961,-19.4212 10.49651,-22.8822 -10e-4,-1.904 -0.98011,-3.462 -2.86639,-4.567 -0.8308,-0.4901 -3.91766,-1.9061 -6.85969,-3.1541 -7.54145,-3.2 -9.61284,-4.439 -12.90527,-7.719 -2.36414,-2.3561 -3.11215,-3.3941 -4.44088,-6.1611 -1.43543,-2.989 -1.5381,-3.363 -1.00984,-3.677 0.7816,-0.47 17.85393,-0.42 28.43364,0.1 4.5271,0.21 8.28692,0.33 8.35515,0.26 0.42091,-0.41 -0.013,-4.7431 -0.7878,-7.8711 -1.59751,-6.4461 -1.09508,-8.5191 2.16205,-8.9201 5.46064,-0.67 8.62343,-1.904 10.75176,-4.179 l 1.41008,-1.5081 2.20237,0.3701 c 2.07168,0.35 4.76959,0.1 7.27623,-0.6501 0.63731,-0.19 0.89501,0.19 2.19402,3.2301 5.37897,12.5971 14.2889,23.5492 22.30254,27.4142 3.56809,1.7211 5.31817,2.0581 12.63086,2.4331 6.54334,0.34 7.86685,0.68 9.33863,2.428 2.64109,3.139 0.84881,11.0751 -3.60074,15.9431 -2.38149,2.6061 -3.4806,3.2161 -6.97976,3.8781 -3.72361,0.7 -5.15474,1.437 -6.48536,3.322 -0.93211,1.321 -1.05045,1.772 -1.04774,3.997 0.005,2.4041 0.094,2.6781 2.1932,6.6041 2.71725,5.083 2.98882,6.5251 1.71683,9.1161 -0.49931,1.017 -2.2686,3.339 -3.93179,5.161 -2.17973,2.3871 -3.45394,4.1681 -4.56375,6.3781 -0.84691,1.686 -1.84626,3.23 -2.22092,3.43 -0.7268,0.39 -2.23552,0.49 -2.554,0.17 l 0,0 z"
     id="Territory_3632"
     style="color:#000000;fill:#008000;fill-opacity:1;fill-rule:nonzero;stroke:none;stroke-width:3;marker:none;visibility:visible;display:inline;overflow:visible;enable-background:accumulate" />
  <path
     d="m 271.34375,230.78125 -1.125,1.65625 c -0.86516,1.27978 -3.08037,3.54394 -5.28125,5.5625 3.33449,1.07121 2.59022,7.44668 -1.5625,7.0625 -2.14914,0.0369 -3.14568,-1.55532 -3.1875,-3.25 -1.15874,0.6989 -2.73391,1.49859 -3.8125,1.9375 -5.32216,2.166 -4.40255,2.62965 -5.15625,7.71875 1.87121,7.84263 8.44819,16.63829 7.84375,20.1875 -0.2585,1.51795 -3.84311,2.90381 -5.40625,2.25 -2.3636,-0.9886 -11.73648,-10.39241 -16.8125,-14.03125 -4.1841,-2.99944 -12.5871,-6.175 -13.375,-6.875 -0.41597,-0.37 -1.14281,-0.41625 -3.5,-0.15625 -7.61157,0.846 -8.49509,2.25165 -6.4375,10.21875 1.1456,4.436 1.03732,6.0339 -0.8125,10.25 -1.82824,4.166 -1.96335,5.07515 -1.46875,10.28125 0.48365,5.091 0.13178,7.1209 -1.78125,10.625 -1.18053,2.162 -4.9467,6.37775 -7.46875,8.34375 -0.86481,0.674 -1.81679,1.64625 -2.125,2.15625 -0.5165,0.866 -0.51385,0.99125 0.0312,1.53125 1.03662,1.037 3.89473,0.5235 9.40625,-1.6875 6.24957,-2.5071 9.8291,-3.40625 14.71875,-3.65625 4.68692,-0.239 8.06697,0.3995 11.625,2.1875 4.63894,2.3321 6.72039,5.2835 7.25,10.3125 0.38652,3.6701 1.15177,5.89575 3.5625,10.09375 4.65698,8.1111 5.70089,11.3113 8.34375,25.8125 2.03516,11.1671 3.05095,15.10215 4.65625,18.15625 1.57751,3.002 4.52937,6.262 6.90625,7.625 1.34155,0.77 2.21871,1.03125 3.625,1.03125 l 1.84375,0 6.21875,-6.21875 c 3.40901,-3.4201 6.92814,-6.79875 7.84375,-7.46875 1.26217,-0.927 1.6356,-1.37625 1.5,-1.90625 -0.24814,-0.97179 -0.65647,-8.01106 -0.9375,-15.40625 -3.46891,-2.67357 -6.01471,-7.13087 -5.71875,-11.5625 2.14088,-4.24493 -2.57193,-6.73159 -4.46875,-10 -1.82058,-6.09563 -1.16584,-15.19131 5.3125,-18.4375 0.82315,-0.27997 1.5742,0.057 2.15625,0.625 1.03276,-1.91775 2.31378,-4.07273 3.9375,-6.6875 4.20983,-6.7791 5.0241,-8.50825 5.5,-11.40625 0.22151,-1.348 0.5363,-3.01875 0.6875,-3.71875 0.2514,-1.168 -0.063,-1.908 -3.46875,-8.75 -4.2317,-8.5021 -5.34404,-10.2704 -9.75,-15.3125 -5.57876,-6.385 -5.99855,-7.88365 -4.46875,-15.84375 1.54875,-8.0581 0.91441,-10.5805 -3.09375,-12.4375 l -1.75,-0.8125 z"
     id="Territory_3634"
     style="color:#000000;fill:#008000;fill-opacity:1;fill-rule:nonzero;stroke:none;stroke-width:3;marker:none;visibility:visible;display:inline;overflow:visible;enable-background:accumulate" />
  <path
     d="m 323.15625,262 c -0.3951,-0.342 -7.34485,6.82925 -8.875,9.15625 -0.61996,0.9431 -1.425,2.55775 -1.8125,3.59375 -1.77093,4.733 -2.92804,6.2325 -5.8125,7.5625 -1.58276,0.7201 -2.19146,0.81875 -6.375,0.71875 -5.27188,-0.1 -4.77494,-0.42725 -5.34375,3.59375 -0.62304,4.405 -1.15273,5.5314 -6.84375,14.6875 -1.3263,2.13372 -2.46494,4.16827 -3.40625,6 -0.82064,5.4183 2.83719,9.91849 5.15625,14.59375 0.45556,3.13393 3.53905,0.247 5.5,0.25 4.21386,-1.17142 7.51396,3.75846 5.875,7.28125 1.95362,0.28137 4.13454,0.84681 6.84375,1.71875 3.4578,1.11 4.00379,1.1725 5.21875,0.8125 2.11298,-0.633 3.97795,-2.9259 7.40625,-9.125 7.07834,-12.7991 10.30479,-16.6184 18.84375,-22.1875 4.42031,-2.883 5.23931,-3.55525 6.34375,-5.28125 l 1.28125,-2 -1.71875,-2.3125 c -0.94712,-1.285 -4.03035,-5.86315 -6.84375,-10.15625 -2.81341,-4.292 -6.03023,-8.95365 -7.125,-10.34375 -1.56338,-1.986 -5.97768,-6.5365 -8.3125,-8.5625 z"
     id="Territory_3636"
     style="color:#000000;fill:#008000;fill-opacity:1;fill-rule:nonzero;stroke:none;stroke-width:3;marker:none;visibility:visible;display:inline;overflow:visible;enable-background:accumulate" />
  <path
     d="m 353.3125,293.34375 c -3.42316,-0.016 -4.72604,0.5175 -5.875,2.4375 -1.33699,2.234 -2.06182,2.87775 -7.3125,6.34375 -8.19519,5.4091 -10.92752,8.6469 -17.96875,21.25 -3.73225,6.6801 -5.17454,8.559 -7.375,9.625 -2.0539,0.996 -3.5427,0.91325 -7.15625,-0.34375 -3.46275,-1.20309 -5.13701,-1.60066 -7.5,-1.71875 -0.0114,0.0103 -0.0197,0.0211 -0.0312,0.0312 -3.27024,1.36822 -4.63624,4.84419 -3.625,8.21875 2.43397,5.02615 -3.59857,7.99951 -7.71875,7.375 -0.24429,-0.11909 -0.47944,-0.26946 -0.71875,-0.40625 0.11095,3.11493 0.25357,6.25537 0.40625,8.375 l 0.40625,5.9375 1.28125,1.09375 c 3.39576,2.935 13.01443,3.891 17.71875,1.75 1.35298,-0.616 2.90692,-1.829 4.96875,-3.875 4.68953,-4.6541 5.85949,-4.5421 11.5625,1.25 3.60664,3.663 6.70822,5.5699 10.5625,6.5 l 0,-0.0312 c 2.58825,0.6701 6.61423,0.6501 9.125,0 2.72132,-0.705 5.25659,-2.01525 10.34375,-5.28125 2.78412,-1.788 4.86001,-2.86375 6.53125,-3.34375 1.35011,-0.39 3.49561,-0.98375 4.75,-1.34375 2.86168,-0.8271 4.00491,-2.00075 5.96875,-5.96875 0.81038,-1.638 3.38473,-6.08425 5.6875,-9.90625 4.91214,-8.1531 7.88721,-14.05915 9.34375,-18.40625 1.20511,-3.597 1.25036,-3.9215 0.53125,-5.3125 -0.57864,-1.119 -3.32547,-2.59265 -10,-5.34375 -9.22331,-3.803 -13.25022,-7.26415 -16.78125,-14.40625 -1.95915,-3.961 -2.78652,-4.5 -7.125,-4.5 z m -3.09375,12.09375 c 0.17027,-0.004 0.353,-0.0138 0.53125,0 2.42673,-0.18299 4.7066,1.03019 6.34375,2.6875 2.41006,3.30589 6.82864,8.14036 3.90625,12.4375 -4.22546,0.92107 -8.32413,-3.06712 -12.03125,-4.90625 -5.41408,-1.42805 -4.02832,-10.08045 1.25,-10.21875 z m -2.34375,13.65625 c 4.34005,0.1679 7.58104,4.93939 7.4375,9.15625 -1.24734,4.96288 -7.73703,2.753 -9.78125,-0.40625 -3.52317,-2.44941 -1.7404,-8.21601 2.34375,-8.75 z"
     id="Territory_3638"
     style="color:#000000;fill:#008000;fill-opacity:1;fill-rule:nonzero;stroke:none;stroke-width:3;marker:none;visibility:visible;display:inline;overflow:visible;enable-background:accumulate" />
  <path
     d="m 276.76215,446.9697 c -1.59166,-1.254 -2.83816,-4.009 -2.84249,-6.2841 -0.002,-1.564 0.22071,-2.137 1.74564,-4.473 0.96201,-1.473 2.07778,-3.74 2.47954,-5.036 0.40181,-1.2961 1.41696,-3.9331 2.25599,-5.8591 4.93303,-11.3261 5.04642,-17.8712 0.38411,-22.1692 -0.82651,-0.76 -2.98588,-2.27 -4.79865,-3.351 -1.81275,-1.0821 -3.76039,-2.3821 -4.32808,-2.8891 l -1.03217,-0.92 1.40636,-1.271 c 0.7735,-0.7 2.6068,-1.937 4.07402,-2.753 3.6535,-2.029 4.63991,-3.37 4.63991,-6.3071 0,-2.212 -0.02,-2.258 -1.59877,-3.705 -0.87931,-0.81 -2.36392,-2.017 -3.29913,-2.691 -0.93521,-0.67 -1.8529,-1.475 -2.03934,-1.7791 -0.2702,-0.44 0.71811,-1.641 4.87531,-5.921 2.86785,-2.952 6.21811,-6.2001 7.44502,-7.2181 l 2.23074,-1.85 1.27184,0.79 c 3.14994,1.959 7.79218,2.861 13.34112,2.594 4.71101,-0.23 7.21357,-1.393 10.66111,-4.97 1.36856,-1.419 2.83933,-2.76 3.26839,-2.979 1.29671,-0.66 2.85571,0.3 6.64615,4.1 2.61969,2.627 4.10963,3.816 5.91827,4.722 4.99989,2.5051 11.16464,3.1711 15.6968,1.6951 3.17207,-1.033 5.02192,-1.9921 9.95206,-5.1571 2.80771,-1.803 4.84928,-2.841 6.53743,-3.324 1.3501,-0.39 3.60924,-1.063 5.02027,-1.502 l 2.56553,-0.8 2.16297,2.162 c 1.57166,1.571 2.65143,2.324 3.94964,2.754 1.6219,0.54 1.82692,0.73 2.22324,2.05 0.31351,1.046 1.30796,2.359 3.52774,4.6581 4.34315,4.497 4.50621,5.918 1.38456,12.0621 -2.10776,4.148 -2.36544,5.656 -1.57436,9.2121 0.55811,2.508 0.55841,2.734 0.005,3.656 -0.656,1.091 -3.19175,3.165 -5.07568,4.151 -0.68301,0.36 -2.77695,0.8301 -4.72851,1.0561 -3.00507,0.36 -4.06584,0.67 -7.46792,2.246 -4.39648,2.03 -7.02852,2.524 -9.35449,1.756 -0.88591,-0.29 -2.35299,-1.462 -4.34175,-3.461 -2.56934,-2.5841 -3.33098,-3.1361 -5.26667,-3.8181 -9.49834,-3.348 -25.14358,-0.26 -26.9725,5.3311 -0.19371,0.59 -0.41131,2.839 -0.48341,4.993 -0.1262,3.7681 -0.1861,4.0271 -1.57905,6.8301 -0.79641,1.602 -3.33744,5.427 -5.64685,8.5001 -2.3094,3.073 -4.63503,6.422 -5.16805,7.442 -0.84911,1.6261 -1.10216,1.8551 -2.04316,1.8561 -1.94895,0 -5.17689,0.75 -6.79275,1.577 -2.02646,1.036 -3.12031,2.214 -6.66899,7.18 -3.5834,5.0151 -4.60177,6.0921 -6.79787,7.1861 -2.3372,1.165 -4.23053,1.142 -5.76763,-0.1 l 0,0 z"
     id="Territory_3640"
     style="color:#000000;fill:#008000;fill-opacity:1;fill-rule:nonzero;stroke:none;stroke-width:3;marker:none;visibility:visible;display:inline;overflow:visible;enable-background:accumulate" />
  <path
     d="m 448.90969,396.7692 c -1.13448,-0.77 -3.06008,-1.709 -4.27915,-2.086 -4.86807,-1.503 -5.22062,-2.061 -5.20843,-8.2451 0.007,-3.724 0.1741,-4.881 1.46334,-10.1571 0.80031,-3.275 1.5644,-6.814 1.69805,-7.864 0.1791,-1.4071 0.4605,-2.0811 1.07035,-2.5601 0.4551,-0.36 1.53679,-2.021 2.40377,-3.695 1.06503,-2.056 2.54904,-4.122 4.57517,-6.3691 3.90252,-4.328 4.87348,-6.263 4.63466,-9.238 -0.14761,-1.8401 -0.53031,-2.8731 -2.29795,-6.2051 -2.33844,-4.409 -2.78649,-5.9901 -2.20036,-7.7661 0.79161,-2.399 2.96523,-3.766 6.81628,-4.288 4.19092,-0.57 7.42292,-3.242 10.31809,-8.5361 l 0.9934,-1.817 3.82569,3.95 c 5.45476,5.6331 8.4437,10.3941 9.27406,14.7732 0.5503,2.901 -0.092,5.028 -2.65172,8.777 -4.77026,6.9871 -4.85247,8.5441 -0.6955,13.1752 1.11153,1.238 2.32353,2.928 2.69334,3.754 0.65261,1.458 0.65371,1.54 0.037,2.797 -1.10541,2.2541 -2.37469,2.8141 -9.73002,4.2931 -3.44174,0.69 -5.19607,3.045 -3.9907,5.353 0.21971,0.42 1.69199,2.113 3.27161,3.7601 3.14163,3.276 4.52729,5.372 5.50035,8.322 1.14546,3.4721 0.6672,5.4011 -1.84966,7.4611 l -1.5426,1.263 -3.67774,-0.49 c -2.02275,-0.27 -5.19122,-0.44 -7.04113,-0.38 -3.28646,0.11 -3.42854,0.15 -6.20906,1.769 -3.57818,2.079 -4.46401,2.11 -7.20112,0.25 l 0,0 z"
     id="Territory_3642"
     style="color:#000000;fill:#008000;fill-opacity:1;fill-rule:nonzero;stroke:none;stroke-width:3;marker:none;visibility:visible;display:inline;overflow:visible;enable-background:accumulate" />
  <path
     d="m 390.25285,452.8838 c -0.97371,-1.3681 -1.61108,-3.1781 -2.73841,-7.7771 -1.09616,-4.4721 -1.93609,-6.2021 -5.09816,-10.5041 -1.34387,-1.829 -2.76087,-3.9471 -3.14885,-4.7081 -1.42003,-2.783 -2.01079,-7.161 -2.36631,-17.5371 -0.18481,-5.3941 -0.47861,-10.3821 -0.65271,-11.0851 -0.2893,-1.167 -0.2412,-1.312 0.5553,-1.675 1.57281,-0.7201 4.98681,-3.5501 5.52055,-4.5831 0.6562,-1.268 0.659,-2.513 0.012,-5.314 -0.64311,-2.7851 -0.43861,-3.7061 1.86118,-8.3801 1.58582,-3.223 1.80164,-3.9241 1.80164,-5.8501 0,-3.047 -0.6098,-4.229 -3.8295,-7.418 -1.54328,-1.5291 -2.90868,-3.1891 -3.03423,-3.6891 -0.51491,-2.052 2.42983,-5.738 7.00954,-8.7741 3.14169,-2.083 4.40563,-1.955 10.18684,1.0311 5.04777,2.608 5.87865,2.818 13.22302,3.354 5.57492,0.41 7.84735,0.93 11.68038,2.674 4.54053,2.07 7.50452,2.924 10.86927,3.13 1.70836,0.11 4.45489,0.36 6.10336,0.57 l 2.9972,0.38 -0.2622,2.1481 c -0.1443,1.181 -0.81941,4.41 -1.50024,7.174 -1.71578,6.9661 -2.11299,10.2421 -1.62409,13.3932 0.2153,1.388 0.52971,2.77 0.69881,3.072 0.229,0.41 -0.251,1.222 -1.88345,3.189 -1.20489,1.452 -4.22266,5.5371 -6.70613,9.0791 -6.06816,8.6521 -7.25855,9.8211 -12.80427,12.5671 -3.82823,1.896 -4.72983,2.513 -6.66496,4.5651 -3.36054,3.562 -4.80413,8.15 -4.32068,13.7311 0.36021,4.159 1.20179,9.4561 1.62917,10.2541 0.3432,0.64 0.2026,0.9 -1.14365,2.084 -5.13737,4.5271 -7.20061,5.5011 -12.2476,5.7831 l -3.35718,0.19 -0.76571,-1.075 0,0 z"
     id="Territory_3644"
     style="color:#000000;fill:#008000;fill-opacity:1;fill-rule:nonzero;stroke:none;stroke-width:3;marker:none;visibility:visible;display:inline;overflow:visible;enable-background:accumulate" />
  <path
     d="m 371.70395,462.0958 c -0.63141,-0.53 -2.27057,-2.538 -3.64267,-4.46 -4.53897,-6.3581 -7.24904,-8.6761 -10.14174,-8.6761 -1.38983,0 -1.7758,0.27 -3.53977,2.499 -1.17008,1.4771 -1.51632,1.6801 -3.83493,2.2391 -3.00823,0.72 -4.24483,1.314 -8.65246,4.116 -5.37317,3.416 -7.3885,4.224 -10.95987,4.394 -1.93984,0.1 -4.51414,-0.1 -7.01123,-0.48 -4.55648,-0.72 -9.21822,-0.79 -11.46187,-0.17 l -1.56154,0.43 -1.8232,-1.897 c -2.80578,-2.92 -3.15141,-5.469 -1.6281,-12.0051 0.95611,-4.102 0.77551,-6.8631 -0.67581,-10.3321 -1.89254,-4.524 -1.93075,-4.947 -0.6746,-7.4721 0.5912,-1.188 2.97349,-4.682 5.29395,-7.763 2.33973,-3.1081 4.87215,-6.9221 5.68532,-8.5631 1.43046,-2.888 1.47106,-3.068 1.6616,-7.3781 0.1511,-3.419 0.3373,-4.634 0.8234,-5.376 1.80354,-2.7531 8.48806,-4.7691 15.91091,-4.8001 7.03697,0 10.17745,1.097 13.64386,4.8951 3.03116,3.321 4.54885,4.018 8.274,3.801 2.5255,-0.15 3.38622,-0.4 7.24426,-2.108 3.82902,-1.697 4.73515,-1.962 7.22338,-2.116 l 2.84514,-0.17 0.2354,1.803 c 0.1295,0.99 0.3698,5.979 0.5341,11.0841 0.42611,13.2411 1.13177,15.9841 5.63218,21.8912 2.94391,3.864 3.76493,5.601 5.12267,10.8361 1.17945,4.548 2.19904,7.1551 3.08665,7.8911 0.39651,0.33 0.33171,0.76 -0.3857,2.568 -0.4742,1.195 -1.31894,2.596 -1.87722,3.115 -1.58546,1.472 -6.14978,2.7701 -10.51402,2.9911 -3.63235,0.18 -3.70015,0.17 -4.83199,-0.7801 l 0,0 z"
     id="Territory_3646"
     style="color:#000000;fill:#008000;fill-opacity:1;fill-rule:nonzero;stroke:none;stroke-width:3;marker:none;visibility:visible;display:inline;overflow:visible;enable-background:accumulate" />
  <path
     d="m 257.28308,564.0808 c -0.98191,-1.025 -1.99109,-2.746 -3.11724,-5.318 -0.91591,-2.0911 -1.86776,-4.0911 -2.1152,-4.4451 -0.38031,-0.54 -0.31811,-0.9 0.4026,-2.3 0.76101,-1.48 0.83721,-1.996 0.70961,-4.81 -0.1108,-2.4451 -0.36031,-3.6591 -1.11191,-5.4111 -1.99553,-4.652 -5.27957,-8.7231 -8.53896,-10.5861 -1.09711,-0.63 -2.94982,-2.028 -4.11712,-3.113 -1.16728,-1.085 -2.90108,-2.4231 -3.85285,-2.9731 -2.73875,-1.582 -5.22378,-3.502 -5.93335,-4.585 -0.9119,-1.392 -0.912,-4.018 -2.6e-4,-5.041 1.07747,-1.2091 2.65045,-1.7171 7.10976,-2.2961 4.77007,-0.62 6.57426,-1.361 8.83242,-3.633 3.00471,-3.023 4.81493,-7.4611 6.66815,-16.3482 1.21475,-5.825 1.29467,-7.925 0.36,-9.458 -0.91931,-1.5071 -2.5582,-2.0231 -9.83559,-3.0971 -6.3451,-0.94 -10.01034,-1.84 -12.42998,-3.068 -2.87167,-1.458 -6.89982,-4.248 -7.16062,-4.9601 -0.3789,-1.035 0.168,-5.953 1.0448,-9.393 1.00839,-3.9571 2.87263,-8.8631 4.95913,-13.0522 2.88606,-5.795 4.13715,-7.429 7.76459,-10.1441 1.78678,-1.337 3.66448,-3.009 4.17267,-3.716 1.13448,-1.578 1.73312,-4.081 1.58936,-6.6451 -0.1071,-1.91 -0.077,-1.977 2.35985,-5.254 1.35756,-1.826 4.61657,-6.5501 7.24224,-10.5001 5.32175,-8.0041 7.80557,-11.1321 11.22157,-14.1311 1.66783,-1.4641 2.81005,-2.1641 4.07476,-2.4981 l 1.75731,-0.46 1.24663,1.175 c 0.68561,0.65 2.77948,2.0721 4.65296,3.1671 6.0901,3.561 7.69931,6.081 7.33574,11.4911 -0.223,3.319 -1.0948,6.277 -3.41634,11.5921 -0.92551,2.119 -2.01167,4.913 -2.41363,6.21 -0.402,1.2961 -1.50386,3.5411 -2.44863,4.9881 -1.93412,2.963 -2.33703,4.531 -1.79034,6.9711 0.5441,2.428 1.5372,4.176 3.16196,5.567 1.61981,1.386 3.11785,1.748 5.25173,1.269 3.34574,-0.75 5.45174,-2.546 9.20611,-7.842 5.03197,-7.0991 6.3675,-8.1391 10.89952,-8.4811 l 2.56817,-0.19 0.25051,1.336 c 0.1378,0.73 0.7898,2.638 1.44882,4.23 1.42619,3.4451 1.50326,5.0301 0.4967,10.2151 -0.8329,4.2901 -0.8951,7.6851 -0.1724,9.4151 0.28991,0.69 1.52082,2.314 2.73544,3.602 1.58622,1.6811 2.48938,3.0251 3.20579,4.7691 2.62035,6.38 3.97469,8.7981 7.14625,12.7611 4.99909,6.2471 6.43449,9.2991 9.1712,19.5022 0.76581,2.855 2.36909,8.0281 3.56285,11.4961 2.11897,6.1551 2.17332,6.4041 2.29002,10.5071 0.1343,4.723 0.3456,5.4881 2.28493,8.2701 1.62034,2.325 2.34079,5.011 2.33871,8.7181 -10e-4,2.457 -0.5369,7.321 -0.83941,7.623 -0.074,0.1 -3.77389,-0.27 -8.22098,-0.77 -13.389,-1.507 -28.06248,-1.769 -32.48066,-0.58 -2.05573,0.55 -3.71031,1.777 -4.45295,3.2921 -0.50641,1.032 -0.70311,2.561 -0.90091,7 -0.2822,6.3311 -0.56241,7.2601 -2.67924,8.8741 -1.81163,1.382 -4.02701,1.472 -8.3655,0.34 -5.10586,-1.331 -6.97919,-1.232 -12.60641,0.67 -3.57074,1.205 -5.18811,1.576 -6.87031,1.576 -2.13725,0 -2.24165,0 -3.65207,-1.515 l 0,0 z"
     id="Territory_3648"
     style="color:#000000;fill:#008000;fill-opacity:1;fill-rule:nonzero;stroke:none;stroke-width:3;marker:none;visibility:visible;display:inline;overflow:visible;enable-background:accumulate" />
  <path
     d="m 352.14595,559.4688 c -3.00327,-1.478 -6.00712,-4.3421 -10.23655,-9.7621 l -2.9344,-3.7611 0.395,-1.967 c 0.56361,-2.806 0.49191,-9.6861 -0.1251,-12.0041 -0.2815,-1.058 -1.11869,-2.792 -1.86047,-3.853 -1.88208,-2.6931 -1.90959,-2.7931 -2.16403,-7.8841 -0.2196,-4.394 -0.3032,-4.774 -2.38663,-10.8581 -1.18747,-3.467 -2.72549,-8.4321 -3.41781,-11.0331 -1.61096,-6.0511 -3.42935,-11.1711 -4.91386,-13.8351 -0.64411,-1.1561 -2.61054,-3.9141 -4.36988,-6.1301 -3.3734,-4.247 -4.377,-5.9651 -6.45771,-11.0501 -0.70531,-1.724 -1.35905,-3.313 -1.45268,-3.531 -0.2628,-0.61 1.83269,-1.179 4.39076,-1.189 1.27159,0 4.80548,0.34 7.8531,0.77 4.8758,0.68 5.84307,0.73 8.05597,0.35 3.0024,-0.51 5.62671,-1.6871 10.07122,-4.5111 4.4596,-2.833 5.33834,-3.256 8.31234,-4 3.00329,-0.75 3.43536,-1.017 5.04403,-3.105 1.44435,-1.8761 2.49162,-2.0011 4.75839,-0.5701 1.47366,0.9301 2.55925,2.2061 7.2081,8.4701 1.43694,1.936 3.03551,3.7131 3.55235,3.9481 0.63751,0.29 0.87171,0.61 0.72811,0.98 -0.5788,1.508 -0.96671,5.843 -0.75571,8.4461 0.45541,5.619 1.48168,8.307 4.91678,12.8771 2.46012,3.274 4.08963,6.424 5.79728,11.2091 2.48791,6.97 3.48233,12.3131 3.71566,19.9642 0.1,3.275 0.3529,6.307 0.56231,6.738 0.668,1.375 -0.30111,4.6361 -4.93454,16.6072 -2.00567,5.181 -2.44046,7.0581 -3.03154,13.0821 -0.85609,5.46356 -11.0226,10.46062 -26.32049,5.6021 z"
     id="Territory_3650"
     style="color:#000000;fill:#008000;fill-opacity:1;fill-rule:nonzero;stroke:none;stroke-width:3;marker:none;visibility:visible;display:inline;overflow:visible;enable-background:accumulate" />
  <path
     d="m 288.50883,613.3893 c -4.05583,-1.487 -12.90764,-10.3371 -18.55069,-18.5462 -1.19181,-1.734 -4.81151,-7.3291 -8.04378,-12.4341 -6.52596,-10.3071 -6.25901,-9.5331 -4.59054,-13.3151 l 0.8519,-1.9311 2.70391,0 c 2.28445,0 3.46462,-0.28 7.60754,-1.699 4.48269,-1.536 5.09906,-1.663 7.18031,-1.477 1.25219,0.11 3.30121,0.53 4.55338,0.94 4.62459,1.493 8.3848,0.83 10.7889,-1.911 1.48049,-1.687 1.83789,-3.276 2.13981,-9.5141 0.28551,-5.899 0.53581,-6.6441 2.55479,-7.6021 3.86692,-1.835 16.13631,-1.791 34.07821,0.12 3.66022,0.39 6.97016,0.78 7.35545,0.86 0.3853,0.1 2.27668,2.1461 4.20311,4.5841 8.67299,10.97624 10.03412,10.25216 19.08213,11.95735 5.81335,0.65062 8.42303,0.93 10.76225,5.3151 0.54941,1.03 1.57653,2.661 2.28237,3.624 1.19377,1.63 1.26394,1.862 1.00524,3.327 -0.35,1.983 -1.19606,3.1391 -2.94265,4.0201 -1.29029,0.65 -3.06354,1.13375 -8.82351,1.36375 -17.62875,0.23 -26.45537,0.71 -35.28937,1.889 -2.16683,0.29 -6.06752,0.76 -8.66818,1.048 -7.46951,0.82 -9.80305,1.51 -11.34152,3.338 -1.10698,1.316 -1.13712,2.1851 -0.1938,5.5891 0.6283,2.268 0.6678,2.821 0.2989,4.196 -1.61847,6.0351 -7.08542,12.9731 -12.26297,15.5632 -2.7599,1.381 -4.44069,1.559 -6.74124,0.72 l 0,0 5e-5,-0.025 z"
     id="Territory_3652"
     style="color:#000000;fill:#008000;fill-opacity:1;fill-rule:nonzero;stroke:none;stroke-width:3;marker:none;visibility:visible;display:inline;overflow:visible;enable-background:accumulate" />
  <path
     d="m 454.46875,470.84375 c -2.27829,7.5e-4 -4.52042,0.56325 -6.78125,1.65625 -2.25538,1.0901 -3.99711,2.6795 -11.0625,10.0625 -4.57998,4.7891 -8.41298,5.97375 -13.40625,4.21875 -1.09403,-0.34 -2.08905,-0.5775 -2.21875,-0.4375 -0.1297,0.144 -0.49879,1.07125 -0.8125,2.03125 -1.11951,3.437 -2.3594,4.5959 -7.46875,7 -1.98736,0.935 -3.90215,2.1395 -5.03125,3.1875 -3.51939,3.267 -7.99942,10.0399 -12.5,18.875 -2.42626,4.763 -4.11749,6.9425 -5.84375,7.5625 -1.03245,0.374 -1.20745,0.64265 -1.40625,1.96875 -0.28387,1.893 -1.25283,4.67415 -4.03125,11.78125 -2.83182,7.244 -3.43809,9.741 -4.0625,16.5 -0.2847,3.0821 -0.63645,6.1525 -0.78125,6.8125 -0.24193,1.103 -0.1462,1.3405 1.3125,2.8125 3.4447,3.45026 4.72898,7.45053 5.66204,11.84375 0.96977,2.42635 0.16731,5.21255 -1.15046,7.40625 -0.26474,0.94246 1.94261,1.50468 2.33217,0.625 1.25246,-1.54434 2.72525,-3.08468 3.15625,-5.09375 0.36627,-1.2733 0.29025,-2.61292 0.5,-3.90625 1.33703,-4.05036 9.19638,-7.00561 13.96875,-6.90625 1.55389,0.129 2.27535,0.4385 4.375,1.9375 3.94641,2.819 6.60711,4.20875 9.40625,4.96875 l 0,0.0312 c 2.19191,0.55 3.35196,0.6925 7.65625,0.5625 5.49235,-0.163 10.77967,-0.965 12.3125,-1.875 0.52797,-0.311 1.13685,-1 1.34375,-1.5 0.48557,-1.172 0.16376,-2.08365 -3.4375,-9.46875 -4.08562,-8.3781 -5.28435,-13.4895 -3.65625,-15.6875 1.24391,-1.6801 2.70535,-2.36625 6.75,-3.15625 2.15732,-0.424 4.3462,-1.01125 4.875,-1.28125 2.36684,-1.224 7.45927,-8.042 10.4375,-14 3.48077,-6.9631 6.02244,-15.40065 7.96875,-26.46875 1.56997,-8.9281 1.88709,-10.09225 4.125,-14.53125 2.61077,-5.1781 2.75203,-6.50475 1.0625,-9.96875 -1.25854,-2.581 -3.07661,-4.18415 -6.71875,-5.90625 -2.29972,-1.096 -4.59671,-1.657 -6.875,-1.65625 l 0,5e-5 z"
     id="Territory_3654"
     style="color:#000000;fill:#008000;fill-opacity:1;fill-rule:nonzero;stroke:none;stroke-width:3;marker:none;visibility:visible;display:inline;overflow:visible;enable-background:accumulate" />
  <path
     d="m 423.82727,485.3981 c -2.46688,-0.91 -3.19594,-1.8411 -4.70382,-6.0391 -2.54229,-7.0781 -3.00516,-10.8341 -1.66001,-13.4711 0.89861,-1.761 1.59593,-2.214 5.30845,-3.445 4.43083,-1.4701 5.77433,-2.1471 6.97402,-3.5131 0.8983,-1.024 1.08655,-1.535 1.08655,-2.95 0,-3.426 -1.86589,-4.4921 -11.03973,-6.3101 -6.27642,-1.243 -9.08329,-2.226 -10.03288,-3.512 -1.13659,-1.539 -1.79378,-5.6831 -1.83306,-11.5591 -0.033,-4.9251 0.04,-5.6161 0.78151,-7.4541 0.4959,-1.229 1.57538,-2.845 2.74261,-4.106 1.6084,-1.737 2.65422,-2.44 6.36252,-4.2781 5.6776,-2.814 7.34822,-4.467 13.79647,-13.6471 5.46712,-7.7841 7.81683,-10.5861 8.64807,-10.3141 4.18289,1.37 6.10942,2.198 8.03453,3.452 3.14851,2.0521 4.61131,2.0561 7.85429,0 3.11495,-1.953 4.65129,-2.335 8.31062,-2.068 5.97428,0.44 8.50405,0.95 9.21912,1.855 0.3615,0.46 1.4504,1.2371 2.41979,1.7281 2.19293,1.112 4.95156,3.829 5.69637,5.612 0.92421,2.212 1.19666,3.95 1.78799,11.4071 0.88541,11.1651 0.45411,21.4082 -1.26084,29.9443 -1.0784,5.3681 -4.43786,14.9861 -7.02332,20.1082 -1.43548,2.844 -4.93019,6.3931 -6.86553,6.9731 -1.36046,0.41 -1.4725,0.38 -3.00839,-0.79 -4.22917,-3.2291 -10.57973,-4.5231 -15.40035,-3.1401 -3.873,1.112 -5.86536,2.584 -11.52667,8.5141 -3.44534,3.61 -5.81516,5.7901 -6.98852,6.4281 -2.39755,1.305 -5.10466,1.501 -7.67974,0.56 l 0,0 z"
     id="Territory_3656"
     style="color:#000000;fill:#008000;fill-opacity:1;fill-rule:nonzero;stroke:none;stroke-width:3;marker:none;visibility:visible;display:inline;overflow:visible;enable-background:accumulate" />
  <path
     d="m 387.82546,523.4684 c -0.1902,-0.24 -0.4238,-3.266 -0.51901,-6.733 -0.1248,-4.5451 -0.3794,-7.2641 -0.9118,-9.7421 -2.04997,-9.5381 -4.75712,-16.2572 -8.65083,-21.4732 -2.80411,-3.7561 -3.3932,-4.8761 -4.13373,-7.8611 -0.6603,-2.662 -0.7676,-9.0421 -0.1906,-11.3331 l 0.37981,-1.509 2.73696,-0.23 c 3.08751,-0.26 7.32564,-1.26 9.62518,-2.2771 1.96858,-0.87 2.94692,-1.997 4.05055,-4.659 l 0.88521,-2.136 2.96765,-0.13 c 5.38288,-0.24 9.1631,-1.957 13.52337,-6.1511 1.38969,-1.337 1.48311,-1.371 2.28244,-0.85 1.41572,0.93 3.64353,1.572 9.77443,2.824 6.76689,1.3821 8.92763,2.1911 9.43758,3.5321 1.00052,2.631 -0.43541,4.052 -5.99221,5.929 -2.19538,0.74 -4.50532,1.729 -5.1332,2.1941 -2.53047,1.874 -3.38441,5.535 -2.36303,10.132 0.68301,3.0731 3.06428,9.9651 3.81228,11.0332 0.4241,0.61 0.3613,1.019 -0.50871,3.352 -0.5459,1.463 -1.43024,3.117 -1.96513,3.675 -0.5349,0.56 -2.76453,1.89 -4.95467,2.959 -3.15693,1.5411 -4.41331,2.3821 -6.06314,4.0571 -3.46145,3.516 -8.12568,10.6941 -12.10015,18.6222 -1.96145,3.912 -3.4847,6.084 -4.71202,6.719 -0.73051,0.38 -1.00596,0.39 -1.27719,0.1 l 0,0 z"
     id="Territory_3658"
     style="color:#000000;fill:#008000;fill-opacity:1;fill-rule:nonzero;stroke:none;stroke-width:3;marker:none;visibility:visible;display:inline;overflow:visible;enable-background:accumulate" />
  <path
     d="m -400.0301,450.75787 a 25.354021,25.354021 0 1 1 -50.70805,0 25.354021,25.354021 0 1 1 50.70805,0 z"
     transform="matrix(0.5328348,0,0,0.5328348,474.55421,421.23279)"
     id="BonusLink_Munster"
     style="color:#000000;fill:#000080;fill-opacity:1;fill-rule:nonzero;stroke:none;stroke-width:10;marker:none;visibility:visible;display:inline;overflow:visible;enable-background:accumulate" />
  <path
     d="m -400.0301,450.75787 a 25.354021,25.354021 0 1 1 -50.70805,0 25.354021,25.354021 0 1 1 50.70805,0 z"
     transform="matrix(0.5328348,0,0,0.5328348,289.40497,32.360217)"
     id="BonusLink_Connacht"
     style="color:#000000;fill:#000080;fill-opacity:1;fill-rule:nonzero;stroke:none;stroke-width:10;marker:none;visibility:visible;display:inline;overflow:visible;enable-background:accumulate" />
  <path
     d="m -400.0301,450.75787 a 25.354021,25.354021 0 1 1 -50.70805,0 25.354021,25.354021 0 1 1 50.70805,0 z"
     transform="matrix(0.42002436,-0.07268976,0.07268976,0.42002436,718.32079,-71.176027)"
     id="BonusLink_SouthernUlster"
     style="color:#000000;fill:#000080;fill-opacity:1;fill-rule:nonzero;stroke:none;stroke-width:10;marker:none;visibility:visible;display:inline;overflow:visible;enable-background:accumulate" />
  <path
     d="m -400.0301,450.75787 a 25.354021,25.354021 0 1 1 -50.70805,0 25.354021,25.354021 0 1 1 50.70805,0 z"
     transform="matrix(0.52503046,-0.0908622,0.0908622,0.52503046,747.94296,-160.14998)"
     id="BonusLink_Ulster"
     style="color:#000000;fill:#000080;fill-opacity:1;fill-rule:nonzero;stroke:none;stroke-width:10;marker:none;visibility:visible;display:inline;overflow:visible;enable-background:accumulate" />
  <path
     d="m -400.0301,450.75787 a 25.354021,25.354021 0 1 1 -50.70805,0 25.354021,25.354021 0 1 1 50.70805,0 z"
     transform="matrix(0.42002436,-0.07268976,0.07268976,0.42002436,688.09637,-134.7357)"
     id="BonusLink_NorthernUlster"
     style="color:#000000;fill:#000080;fill-opacity:1;fill-rule:nonzero;stroke:none;stroke-width:10;marker:none;visibility:visible;display:inline;overflow:visible;enable-background:accumulate" />
  <path
     d="m -400.0301,450.75787 a 25.354021,25.354021 0 1 1 -50.70805,0 25.354021,25.354021 0 1 1 50.70805,0 z"
     transform="matrix(0.40592106,0.12974847,-0.12974847,0.40592106,737.60961,308.48867)"
     id="BonusLink_SouthernLeinster"
     style="color:#000000;fill:#000080;fill-opacity:1;fill-rule:nonzero;stroke:none;stroke-width:10;marker:none;visibility:visible;display:inline;overflow:visible;enable-background:accumulate" />
  <path
     d="m -400.0301,450.75787 a 25.354021,25.354021 0 1 1 -50.70805,0 25.354021,25.354021 0 1 1 50.70805,0 z"
     transform="matrix(0.50753779,0.16222921,-0.16222921,0.50753779,807.97523,241.73464)"
     id="BonusLink_Leinster"
     style="color:#000000;fill:#000080;fill-opacity:1;fill-rule:nonzero;stroke:none;stroke-width:10;marker:none;visibility:visible;display:inline;overflow:visible;enable-background:accumulate" />
  <path
     d="m -400.0301,450.75787 a 25.354021,25.354021 0 1 1 -50.70805,0 25.354021,25.354021 0 1 1 50.70805,0 z"
     transform="matrix(0.40592106,0.12974848,-0.12974848,0.40592106,734.66528,238.62917)"
     id="BonusLink_NorthernLeinster"
     style="color:#000000;fill:#000080;fill-opacity:1;fill-rule:nonzero;stroke:none;stroke-width:10;marker:none;visibility:visible;display:inline;overflow:visible;enable-background:accumulate" />
  <g
     id="g2862"
     style="opacity:1">
    <path
       style="fill:#8ccef7;fill-opacity:1;stroke:none"
       d="m 141.75,327.3125 c -4.5338,0.19635 -9.49664,-0.28441 -13.03125,2.9375 -2.16949,0.32523 -5.09553,0.96536 -4.71875,3.90625 1.28808,4.18472 7.40325,2.97134 10.28125,5.71875 4.39374,6.05939 12.19581,7.13075 19.03125,8.84375 0.34958,6.05014 -0.0312,14.30728 5.84375,17.8125 4.68588,0.45246 8.00853,-5.19374 5.875,-9.40625 -1.08698,-3.90794 0.96769,-8.39396 -0.40625,-12.0625 -4.28923,-2.00827 -9.67447,-1.99008 -13.625,-4.875 -1.14214,-3.08786 -0.93522,-7.09535 -4.21875,-9.15625 -1.66407,-1.72889 -2.0485,-4.4355 -5.03125,-3.71875 z"
       id="path3066" />
    <path
       style="fill:#8ccef7;fill-opacity:1;stroke:none"
       d="m 305.625,148.3125 c -5.16751,0.88233 -13.30544,1.28729 -14.8125,7.375 -1.10119,3.6363 2.77415,5.16977 5.75,4.9375 8.51718,1.38283 14.93101,8.25889 21.0625,13.84375 0.74942,2.23775 5.35805,4.48427 5.46875,0.71875 -0.34308,-6.24956 -7.98389,-9.30036 -8.28125,-15.5625 -1.83391,-2.97078 -1.97463,-6.49234 -3.3125,-9.5625 -1.38637,-1.73396 -3.83279,-1.82353 -5.875,-1.75 z m 25.53125,45.40625 c -3.0753,0.14475 -5.38185,3.8409 -2.625,6.125 4.22478,4.17463 7.46254,9.16432 10.40625,14.1875 1.97437,3.10773 6.84318,-0.11771 4.5,-3.09375 -4.00296,-5.32389 -4.27409,-13.37161 -10.5625,-16.9375 -0.5341,-0.22607 -1.12101,-0.40378 -1.71875,-0.28125 z"
       id="path3145" />
    <path
       style="color:#000000;fill:#8ccef7;fill-opacity:1;fill-rule:nonzero;stroke:none;stroke-width:3;marker:none;visibility:visible;display:inline;overflow:visible;enable-background:accumulate"
       d="m 452.3125,117.65625 c -5.39814,3.58709 -7.76408,10.0886 -9.0625,16.3125 -0.308,1.8156 -3.47328,4.95975 -0.25,5.46875 1.41591,0.64741 4.83147,0.16037 5.09375,0.78125 -3.34785,6.43454 -9.81446,11.14151 -11.125,18.6875 -0.22645,2.20464 -3.94194,7.20652 0.48631,6.57482 9.32084,0.63765 18.86712,0.50413 27.79494,3.42518 1.91553,1.17734 2.35333,4.49635 4.9375,2.46875 1.76943,-0.90541 6.86792,-2.68945 3.40625,-4.71875 -6.44035,-3.84943 -3.662,-12.51083 -1.97824,-18.13799 1.43989,-6.71889 5.68315,-13.03871 5.10324,-19.92451 -1.42002,-3.48644 -6.21124,-0.48618 -8.875,-0.8125 -4.82952,1.06519 -11.61173,0.24663 -12.90625,-5.53125 -0.85845,-1.14675 -0.61514,-4.7814 -2.625,-4.59375 z"
       id="asd" />
    <path
       style="fill:#8ccef7;fill-opacity:1;stroke:none"
       d="m 263.59375,238.625 c -3.66544,0.2572 -3.59061,6.13434 0.21875,5.5625 3.42508,-0.20081 3.26854,-5.85919 -0.21875,-5.5625 z"
       id="path3198" />
    <path
       style="fill:#8ccef7;fill-opacity:1;stroke:none"
       d="m 281.9375,305.84375 c -5.50082,2.4054 -6.07897,10.11479 -5.5,15.40625 0.25835,4.63321 7.22838,6.23757 5.28125,11.40625 -1.16406,5.16411 2.75972,10.08169 6.5625,13.03125 2.69748,0.4231 6.93194,-0.50043 7.875,-3.3125 -0.43115,-3.75699 -2.20622,-9.21052 2.46875,-11.28125 3.6861,-2.05846 2.5796,-8.06988 -1.78125,-8.125 -2.34499,-0.47939 -5.04959,1.70767 -7,1.28125 -1.48229,-5.48401 -6.96802,-9.93474 -5.8125,-16.15625 -0.0898,-1.09508 -0.86094,-2.38983 -2.09375,-2.25 z"
       id="path4034" />
    <path
       style="fill:#8ccef7;fill-opacity:1;stroke:none"
       d="m 350.75,306.25 c -4.5158,-0.30667 -6.33145,6.51107 -2.09375,8.34375 3.71952,1.83828 7.526,5.29457 11.71875,5.46875 2.41377,-2.8712 -0.96197,-6.99773 -2.4375,-9.625 -1.62333,-2.41714 -4.13861,-4.4329 -7.1875,-4.1875 z m -2.71875,13.625 c -3.1757,0.61415 -5.1304,4.63762 -2.25,6.9375 1.61498,2.63804 7.27631,5.83643 8.71875,1.4375 0.25222,-3.57845 -2.65892,-7.83988 -6.25,-8.40625 l -0.125,0 -0.0937,0.0312 z"
       id="path4129" />
  </g>
</svg>
